<svg xmlns="http://www.w3.org/2000/svg" width="30" height="30" viewBox="0 0 30 30">
  <path id="Path_5555" data-name="Path 5555" d="M15,0A15,15,0,1,0,30,15,14.987,14.987,0,0,0,15,0ZM7.564,22.4a8.727,8.727,0,0,1,0-12.331L9.089,11.6l1.716,1.716L12.489,15a1.723,1.723,0,0,1,.922-.477h0a1.547,1.547,0,0,1,.381-.032h.1c.1,0,.191.032.286.032.032,0,.1.032.127.032.1.032.159.064.254.1.032.032.064.032.1.064a1.244,1.244,0,0,1,.318.254,2.227,2.227,0,0,1,.254.318c.032.032.032.064.064.1.032.1.1.159.1.254,0,.032.032.1.032.127a.88.88,0,0,1,.032.286v.1a1.547,1.547,0,0,1-.032.381h0a1.982,1.982,0,0,1-.477.922l1.684,1.684,1.716,1.716,1.525,1.525A8.66,8.66,0,0,1,7.564,22.4Zm12.489-4.322-2.288-.763a4.119,4.119,0,0,0-1.081-4.036A4.174,4.174,0,0,0,12.648,12.2l-.763-2.288a6.59,6.59,0,0,1,8.167,8.167Zm4.417,1.43-2.383-.763A8.734,8.734,0,0,0,11.218,7.881L10.456,5.5A11.223,11.223,0,0,1,24.47,19.513Z" fill="#ff994b"/>
</svg>
