<svg xmlns="http://www.w3.org/2000/svg" width="16" height="15.974" viewBox="0 0 16 15.974">
  <g id="Group_15199" data-name="Group 15199" transform="translate(0)">
    <g id="Group_11430" data-name="Group 11430" transform="translate(0)">
      <path id="Path_7353" data-name="Path 7353" d="M29.3,33.318l-1.341-1.341a1.335,1.335,0,0,0,.391-.726h0V30.8a.336.336,0,0,0-.056-.223c0-.056,0-.056-.056-.112,0-.056-.056-.112-.112-.223,0-.056-.056-.056-.056-.112a.981.981,0,0,0-.223-.279,1.219,1.219,0,0,0-.279-.223c-.056,0-.056-.056-.112-.056-.056-.056-.112-.056-.223-.112-.056,0-.056,0-.112-.056-.056,0-.168-.056-.223-.056h-.447a1.335,1.335,0,0,0-.726.391L24.38,28.4l-1.4-1.4L21.978,26a6.992,6.992,0,0,0,9.888,9.888l-1.229-1.229Z" transform="translate(-19.925 -21.967)" fill="#fff"/>
      <path id="Path_7354" data-name="Path 7354" d="M36.794,21.417A8.931,8.931,0,0,0,27.8,19.182l.614,1.9a6.939,6.939,0,0,1,8.659,8.659l1.9.614A8.809,8.809,0,0,0,36.794,21.417Z" transform="translate(-23.401 -18.78)" fill="#fff"/>
      <path id="Path_7355" data-name="Path 7355" d="M29.9,25.642l.615,1.844a3.494,3.494,0,0,1,3.24.838,3.229,3.229,0,0,1,.838,3.24l1.844.614A5.281,5.281,0,0,0,29.9,25.642Z" transform="translate(-24.328 -21.721)" fill="#fff"/>
    </g>
  </g>
</svg>
