<svg xmlns="http://www.w3.org/2000/svg" width="15.34" height="18" viewBox="0 0 15.34 18">
  <g id="Group_15721" data-name="Group 15721" transform="translate(-240.38 -1690.026)">
    <path id="Path_7581" data-name="Path 7581" d="M242.87,1695.627a.785.785,0,0,0,.463-.15l4.29-3.12v10.722a.788.788,0,0,0,1.575,0v-10.722l4.288,3.12a.787.787,0,1,0,.926-1.274l-5.539-4.031a.937.937,0,0,0-.1-.051.7.7,0,0,0-.725,0,.932.932,0,0,0-.1.051l-5.541,4.031a.787.787,0,0,0,.463,1.424Z" transform="translate(-0.362 0)" fill="#a5a5a5"/>
    <path id="Path_7582" data-name="Path 7582" d="M254.932,1706.459a.788.788,0,0,0-.788.788v2.694H241.955v-2.694a.788.788,0,0,0-1.575,0v3.482a.787.787,0,0,0,.788.788h13.764a.787.787,0,0,0,.788-.788v-3.482A.787.787,0,0,0,254.932,1706.459Z" transform="translate(0 -3.49)" fill="#a5a5a5"/>
  </g>
</svg>
