<svg xmlns="http://www.w3.org/2000/svg" width="17.143" height="17.084" viewBox="0 0 17.143 17.084">
  <path id="Path_7453" data-name="Path 7453" d="M16.791,9.563l-1.485-.6-.6-1.485a.587.587,0,0,0-.3-.3l-1.485-.6-.6-1.485a.587.587,0,0,0-.3-.3l-1.485-.62-.6-1.485a.587.587,0,0,0-.3-.3l-1.485-.6L7.54.293a.552.552,0,0,0-.733-.3.48.48,0,0,0-.188.132.522.522,0,0,0-.244.282L2.426,10.352a.444.444,0,0,0-.169.113L.9,11.819a3.064,3.064,0,0,0-.019,4.325,3,3,0,0,0,2.162.884,3.075,3.075,0,0,0,2.162-.884L6.562,14.79c.019-.019.038-.056.056-.075l10.041-3.967a.611.611,0,0,0,.244-.188.5.5,0,0,0,.188-.244A.558.558,0,0,0,16.791,9.563ZM6.976,1.91l.207.508a.587.587,0,0,0,.3.3l1.485.6.6,1.485a.587.587,0,0,0,.3.3l1.485.6.6,1.485a.587.587,0,0,0,.3.3l1.485.6.6,1.485a.587.587,0,0,0,.3.3l.489.207-6.2,2.463-.376-.075-.188-.846a.362.362,0,0,0-.282-.282l-.846-.188-.188-.846a.362.362,0,0,0-.282-.282l-.846-.188L5.735,9a.362.362,0,0,0-.282-.282l-.846-.188-.094-.414ZM6.243,13.643l-.677-.677,1.26-1.147c.019,0,.019.019.038.019l.846.188.188.846c0,.038.019.056.038.094ZM4.1,9.149a.267.267,0,0,0,.113.038l.846.188.188.846c0,.019,0,.019.019.038l-1.147,1.26-.677-.677Zm.282,2.632,1.166-1.26h0l.846.188.188.846L5.3,12.7Zm-1.73-.132,2.726,2.726-.3.32L2.35,11.969ZM3.046,15.9a1.915,1.915,0,0,1-1.354-3.272l.113-.113,2.726,2.726-.113.113A1.917,1.917,0,0,1,3.046,15.9Z" transform="translate(0 0.056)" fill="#fff"/>
</svg>
