<svg xmlns="http://www.w3.org/2000/svg" width="20" height="19.958" viewBox="0 0 20 19.958">
  <g id="Group_16127" data-name="Group 16127" transform="translate(-1492.115 -1921.066)">
    <path id="Path_7646" data-name="Path 7646" d="M1503.159,1932.867l-.717-.718a.753.753,0,0,0,.205-.386h0a.689.689,0,0,0,.013-.167c0-.016,0-.031,0-.047a.857.857,0,0,0-.019-.119c0-.017-.011-.036-.017-.054a.726.726,0,0,0-.047-.109c-.009-.016-.016-.032-.024-.047a.849.849,0,0,0-.107-.138.758.758,0,0,0-.138-.107.486.486,0,0,0-.047-.024.822.822,0,0,0-.109-.048l-.055-.016a.7.7,0,0,0-.119-.019l-.047,0a.793.793,0,0,0-.167.013h0a.747.747,0,0,0-.386.206l-.718-.718-.727-.727-.644-.644a3.708,3.708,0,0,0,5.244,5.243l-.644-.643Z" transform="translate(-0.158 -0.206)" fill="#fff"/>
    <path id="Path_7647" data-name="Path 7647" d="M1500.578,1926.99l.33,1.015a3.709,3.709,0,0,1,4.615,4.615l1.015.33a4.776,4.776,0,0,0-5.96-5.96Z" transform="translate(-0.22 -0.148)" fill="#fff"/>
    <path id="Path_7648" data-name="Path 7648" d="M1501.206,1928.924l.318.98a1.768,1.768,0,0,1,2.169,2.169l.98.319a2.8,2.8,0,0,0-3.467-3.468Z" transform="translate(-0.236 -0.201)" fill="#fff"/>
    <path id="Path_7649" data-name="Path 7649" d="M1510.768,1926.044a10,10,0,0,0-18.653,5,9.682,9.682,0,0,0,1.373,5.009,10.156,10.156,0,0,0,3.623,3.622,9.92,9.92,0,0,0,9.984,0,10.1,10.1,0,0,0,3.648-3.624,9.684,9.684,0,0,0,1.371-5.008A9.785,9.785,0,0,0,1510.768,1926.044Zm-3.033,8.256a7.661,7.661,0,0,1-2.385,2.386l0,0a6.27,6.27,0,0,1-3.273.879,6.511,6.511,0,0,1-1.644-.274,5.925,5.925,0,0,1-1.565-.618,6.145,6.145,0,0,1-1.307-1.05,6.694,6.694,0,0,1-1.056-1.319,6.523,6.523,0,0,1-.014-6.536,6.15,6.15,0,0,1,1.048-1.305,7.393,7.393,0,0,1,1.3-1.057,6.469,6.469,0,0,1,3.261-.884,6.281,6.281,0,0,1,3.274.88,6.887,6.887,0,0,1,1.307,1.061,6.814,6.814,0,0,1,1.056,1.319,6.462,6.462,0,0,1,0,6.516Z" transform="translate(0 0)" fill="#fff"/>
  </g>
</svg>
