<svg xmlns="http://www.w3.org/2000/svg" width="10.36" height="10.36" viewBox="0 0 10.36 10.36">
  <g id="Group_15900" data-name="Group 15900" transform="translate(0 0)">
    <g id="Group_11430" data-name="Group 11430" transform="translate(3.063 2.895)">
      <path id="Path_7353" data-name="Path 7353" d="M22.5,28.02l-.369-.37a.369.369,0,0,0,.108-.2h0v-.123a.093.093,0,0,0-.015-.062c0-.015,0-.015-.015-.031,0-.015-.015-.031-.031-.062,0-.015-.015-.015-.015-.031a.271.271,0,0,0-.061-.077A.336.336,0,0,0,22.027,27c-.015,0-.015-.015-.031-.015-.015-.015-.031-.015-.061-.031-.015,0-.015,0-.031-.015-.015,0-.046-.015-.061-.015H21.72a.367.367,0,0,0-.2.108l-.369-.37-.384-.385L20.49,26a1.927,1.927,0,0,0,2.721,2.729l-.338-.339Z" transform="translate(-19.925 -24.887)" fill="#5a5a5a"/>
      <path id="Path_7354" data-name="Path 7354" d="M30.275,19.507a2.452,2.452,0,0,0-2.475-.617l.169.524a1.912,1.912,0,0,1,2.383,2.39l.523.17A2.436,2.436,0,0,0,30.275,19.507Z" transform="translate(-26.59 -18.78)" fill="#5a5a5a"/>
      <path id="Path_7355" data-name="Path 7355" d="M29.9,25.5l.169.509a.96.96,0,0,1,.892.231.893.893,0,0,1,.231.894l.507.17a1.455,1.455,0,0,0-1.8-1.8Z" transform="translate(-28.367 -24.415)" fill="#5a5a5a"/>
    </g>
    <path id="Path_7356" data-name="Path 7356" d="M9.669,2.59A5.153,5.153,0,0,0,7.778.709,5.006,5.006,0,0,0,5.165,0a5.125,5.125,0,0,0-2.6.694A5.229,5.229,0,0,0,.692,2.575,5.2,5.2,0,0,0,.707,7.786,5.228,5.228,0,0,0,2.582,9.666a5.07,5.07,0,0,0,2.582.694,5.125,5.125,0,0,0,2.6-.694A5.4,5.4,0,0,0,9.653,7.786,4.989,4.989,0,0,0,10.36,5.18,5.067,5.067,0,0,0,9.669,2.59ZM8.546,5.18a3.308,3.308,0,0,1-.461,1.7,4.2,4.2,0,0,1-.553.694,3.639,3.639,0,0,1-.692.555h0a3.2,3.2,0,0,1-1.691.463A3.29,3.29,0,0,1,4.3,8.449a3.2,3.2,0,0,1-.815-.324,3.111,3.111,0,0,1-.676-.54,4.136,4.136,0,0,1-.553-.678,3.308,3.308,0,0,1-.461-1.7,3.45,3.45,0,0,1,.446-1.7,3.117,3.117,0,0,1,.538-.678,4.128,4.128,0,0,1,.676-.555,3.284,3.284,0,0,1,1.691-.463,3.2,3.2,0,0,1,1.691.463,3.353,3.353,0,0,1,.676.555,4.136,4.136,0,0,1,.553.678A3.078,3.078,0,0,1,8.546,5.18Z" transform="translate(0 0)" fill="#5a5a5a"/>
  </g>
</svg>
