<svg xmlns="http://www.w3.org/2000/svg" width="11.998" height="12" viewBox="0 0 11.998 12">
  <path id="Subtraction_6" data-name="Subtraction 6" d="M-3580-9642a6.006,6.006,0,0,1-6-6,6.007,6.007,0,0,1,6-6,6.007,6.007,0,0,1,6,6A6.006,6.006,0,0,1-3580-9642Zm-.164-9.884a.194.194,0,0,0-.086.019l-.011.006a.226.226,0,0,0-.064.047.214.214,0,0,0-.1.114l-1.58,3.979a.154.154,0,0,0-.068.046l-.54.54a1.208,1.208,0,0,0-.361.865,1.215,1.215,0,0,0,.354.865,1.2,1.2,0,0,0,.865.354,1.238,1.238,0,0,0,.863-.354l.543-.543a.072.072,0,0,0,.012-.016.062.062,0,0,1,.01-.014l4.017-1.587a.233.233,0,0,0,.1-.075.176.176,0,0,0,.075-.1.225.225,0,0,0-.119-.3l-.594-.24-.242-.594a.252.252,0,0,0-.121-.121l-.594-.239-.24-.594a.226.226,0,0,0-.121-.121l-.593-.247-.24-.6a.236.236,0,0,0-.121-.118l-.593-.24-.242-.6A.227.227,0,0,0-3580.164-9651.885Zm-1.588,6.383a.775.775,0,0,1-.543-.225.772.772,0,0,1-.225-.543.758.758,0,0,1,.225-.54l.046-.047,1.09,1.091-.046.046A.764.764,0,0,1-3581.752-9645.5Zm.812-.481h0l-1.09-1.091.119-.128,1.09,1.09-.118.129Zm.465-.422h0l-.271-.271.5-.458h0a.012.012,0,0,1,.009,0,.009.009,0,0,0,.007,0l.337.075.075.339a.042.042,0,0,0,.009.023.056.056,0,0,1,.008.013l-.677.271Zm-.376-.376h0l-.367-.368.465-.5.339.075.075.339-.51.458Zm1.451-.061h0l-.15-.028-.075-.34a.141.141,0,0,0-.114-.111l-.337-.075-.075-.339a.147.147,0,0,0-.114-.114l-.339-.075-.075-.339a.142.142,0,0,0-.112-.111l-.339-.075-.036-.167.984-2.481.083.2a.249.249,0,0,0,.121.121l.594.239.242.594a.232.232,0,0,0,.119.121l.6.24.24.6a.236.236,0,0,0,.121.119l.594.242.24.594a.231.231,0,0,0,.121.118l.2.085-2.483.983Zm-1.926-.414h0l-.268-.269.261-.679a.094.094,0,0,0,.046.015l.339.075.075.339c0,.01,0,.01.007.015l-.46.5Z" transform="translate(3585.999 9654.001)" fill="#5a5a5a"/>
</svg>
