<svg xmlns="http://www.w3.org/2000/svg" width="15" height="14.948" viewBox="0 0 15 14.948">
  <path id="Path_7453" data-name="Path 7453" d="M14.692,8.36l-1.3-.526-.526-1.3a.514.514,0,0,0-.263-.263l-1.3-.526-.526-1.3a.514.514,0,0,0-.263-.263l-1.3-.543-.526-1.3a.514.514,0,0,0-.263-.263l-1.3-.526L6.6.249a.483.483,0,0,0-.642-.263A.42.42,0,0,0,5.791.1a.457.457,0,0,0-.214.247l-3.455,8.7a.389.389,0,0,0-.148.1L.79,10.335a2.681,2.681,0,0,0-.016,3.784,2.622,2.622,0,0,0,1.892.773,2.69,2.69,0,0,0,1.892-.773l1.185-1.185c.016-.016.033-.049.049-.066L14.577,9.4a.535.535,0,0,0,.214-.165.441.441,0,0,0,.165-.214A.488.488,0,0,0,14.692,8.36ZM6.1,1.664l.181.444a.514.514,0,0,0,.263.263l1.3.526.526,1.3a.514.514,0,0,0,.263.263l1.3.526.526,1.3a.514.514,0,0,0,.263.263l1.3.526.526,1.3a.514.514,0,0,0,.263.263l.428.181L7.815,10.976l-.329-.066-.165-.74a.316.316,0,0,0-.247-.247l-.74-.165-.165-.74a.316.316,0,0,0-.247-.247l-.74-.165-.165-.74a.316.316,0,0,0-.247-.247l-.74-.165-.082-.362ZM5.462,11.931l-.592-.592,1.1-1c.016,0,.016.016.033.016l.74.165.165.74c0,.033.016.049.033.082ZM3.587,8a.234.234,0,0,0,.1.033l.74.165.165.74c0,.016,0,.016.016.033l-1,1.1-.592-.592Zm.247,2.3,1.02-1.1h0l.74.165.165.74-1.119,1ZM2.32,10.187l2.386,2.386-.263.28L2.057,10.466ZM2.665,13.9a1.675,1.675,0,0,1-1.185-2.863l.1-.1,2.386,2.386-.1.1A1.677,1.677,0,0,1,2.665,13.9Z" transform="translate(0 0.056)" fill="#fff"/>
</svg>
