<svg xmlns="http://www.w3.org/2000/svg" width="260.22" height="260.22" viewBox="0 0 260.22 260.22">
  <path id="Path_5612" data-name="Path 5612" d="M130.11,0A130.11,130.11,0,1,0,260.22,130.11,130,130,0,0,0,130.11,0Zm-64.5,194.338a75.7,75.7,0,0,1,0-106.955l13.232,13.232L93.723,115.5l14.61,14.61a14.95,14.95,0,0,1,7.994-4.135h0a13.422,13.422,0,0,1,3.308-.276h.827c.827,0,1.654.276,2.481.276.276,0,.827.276,1.1.276.827.276,1.378.551,2.205.827.276.276.551.276.827.551a10.793,10.793,0,0,1,2.757,2.205,19.312,19.312,0,0,1,2.205,2.757c.276.276.276.551.551.827.276.827.827,1.378.827,2.205,0,.276.276.827.276,1.1a7.632,7.632,0,0,1,.276,2.481v.827a13.421,13.421,0,0,1-.276,3.308h0a17.19,17.19,0,0,1-4.135,7.994l14.61,14.61,14.885,14.885,13.232,13.232C143.066,223.833,95.1,223.833,65.606,194.338ZM173.94,156.849l-19.847-6.616a35.732,35.732,0,0,0-9.372-35.008,36.2,36.2,0,0,0-35.008-9.372L103.1,86a57.163,57.163,0,0,1,70.844,70.844Zm38.316,12.4-20.674-6.616A75.76,75.76,0,0,0,97.307,68.363L90.691,47.689A97.351,97.351,0,0,1,212.256,169.253Z" fill="#1d1d1d" opacity="0.597"/>
</svg>
