<svg xmlns="http://www.w3.org/2000/svg" width="10" height="8.889" viewBox="0 0 10 8.889">
  <g id="Group_13831" data-name="Group 13831" transform="translate(-4081 -2539)">
    <path id="Path_440" data-name="Path 440" d="M9.556.756H8.267V.444a.444.444,0,0,0-.889,0V.756H2.622V.444A.42.42,0,0,0,2.178,0a.42.42,0,0,0-.444.444V.756H.444A.42.42,0,0,0,0,1.2V8.444a.42.42,0,0,0,.444.444H9.556A.42.42,0,0,0,10,8.444V1.2A.42.42,0,0,0,9.556.756Zm-7.822.889v.311a.42.42,0,0,0,.444.444.42.42,0,0,0,.444-.444V1.644h4.8v.311a.444.444,0,0,0,.889,0V1.644h.844V3.378H.889V1.644ZM.889,8V3.822H9.111V8Z" transform="translate(4081 2539)" fill="#ff994b"/>
  </g>
</svg>
