<svg xmlns="http://www.w3.org/2000/svg" width="18.79" height="24" viewBox="0 0 18.79 24">
  <g id="Group_16129" data-name="Group 16129" transform="translate(-1590.143 -1917.113)">
    <path id="Path_7650" data-name="Path 7650" d="M1604.125,1917.113l-8.292,13.538h3.774l-3.421,10.462,8.229-13.508-3.729-.021Z" transform="translate(-0.586)" fill="#fff"/>
    <g id="Group_16128" data-name="Group 16128" transform="translate(1590.142 1919.717)">
      <path id="Path_7651" data-name="Path 7651" d="M1596.333,1936.339a7.633,7.633,0,0,1,3.2-14.563q.147,0,.293.005l1.025-1.671a9.4,9.4,0,0,0-6.166,17.352,9.223,9.223,0,0,0,1.093.563Z" transform="translate(-1590.142 -1920.016)" fill="#fff"/>
      <path id="Path_7652" data-name="Path 7652" d="M1605.357,1921.479a9.3,9.3,0,0,0-1.079-.562l-.554,1.685a7.714,7.714,0,0,1,1.076.616,7.635,7.635,0,0,1-4.329,13.925c-.083,0-.165,0-.248,0l-1.021,1.677a9.4,9.4,0,0,0,6.155-17.336Z" transform="translate(-1591.075 -1920.109)" fill="#fff"/>
    </g>
  </g>
</svg>
