<svg xmlns="http://www.w3.org/2000/svg" width="20" height="18.126" viewBox="0 0 20 18.126">
  <g id="Group_16130" data-name="Group 16130" transform="translate(-1625.533 -1920.122)">
    <path id="Path_7653" data-name="Path 7653" d="M1635.533,1920.122c-5.514,0-10,3.618-10,8.065,0,2.836,1.872,5.462,4.849,6.908a5.2,5.2,0,0,1-1.865,1.5.86.86,0,0,0,.317,1.63c.247.017.492.027.735.027a8.151,8.151,0,0,0,5.576-2.006c.127.006.257.01.388.01,5.514,0,10-3.618,10-8.065S1641.047,1920.122,1635.533,1920.122Zm0,14.409c-.225,0-.446-.014-.665-.028a.877.877,0,0,0-.671.26,5.676,5.676,0,0,1-2.531,1.479,6.421,6.421,0,0,0,.511-.735c.063-.107.118-.217.169-.327l.051-.1a.861.861,0,0,0-.469-1.19c-2.84-1.062-4.675-3.3-4.675-5.7,0-3.5,3.714-6.344,8.28-6.344s8.28,2.846,8.28,6.344S1640.1,1934.531,1635.533,1934.531Z" fill="#fff"/>
    <path id="Path_7654" data-name="Path 7654" d="M1632.484,1928.4a1.254,1.254,0,1,0,1.253,1.254A1.254,1.254,0,0,0,1632.484,1928.4Z" transform="translate(-0.796 -1.156)" fill="#fff"/>
    <path id="Path_7655" data-name="Path 7655" d="M1636.954,1928.4a1.254,1.254,0,1,0,1.253,1.254A1.255,1.255,0,0,0,1636.954,1928.4Z" transform="translate(-1.421 -1.156)" fill="#fff"/>
    <path id="Path_7656" data-name="Path 7656" d="M1641.425,1928.4a1.254,1.254,0,1,0,1.255,1.254A1.254,1.254,0,0,0,1641.425,1928.4Z" transform="translate(-2.046 -1.156)" fill="#fff"/>
  </g>
</svg>
