<svg xmlns="http://www.w3.org/2000/svg" width="22.25" height="19" viewBox="0 0 22.25 19">
  <g id="Group_16032" data-name="Group 16032" transform="translate(-728.977 -1258.82)">
    <path id="Path_7640" data-name="Path 7640" d="M749.227,1258.82h-18.25a2,2,0,0,0-2,2v11.25a2,2,0,0,0,2,2h2.252v2.75a1,1,0,0,0,1.621.784l4.473-3.534h9.9a2,2,0,0,0,2-2v-11.25A2,2,0,0,0,749.227,1258.82Zm0,13.25H738.975a1,1,0,0,0-.619.216l-3.127,2.469v-1.685a1,1,0,0,0-1-1h-3.252v-11.25h18.25Z" fill="#a5a5a5"/>
    <path id="Path_7641" data-name="Path 7641" d="M734.727,1265.32h11.25a.5.5,0,0,0,0-1h-11.25a.5.5,0,0,0,0,1Z" fill="#a5a5a5"/>
    <path id="Path_7642" data-name="Path 7642" d="M734.727,1268.4h11.25a.5.5,0,0,0,0-1h-11.25a.5.5,0,0,0,0,1Z" fill="#a5a5a5"/>
  </g>
</svg>
