<svg xmlns="http://www.w3.org/2000/svg" width="9.362" height="15" viewBox="0 0 9.362 15">
  <path id="Path_1478" data-name="Path 1478" d="M8.95,11.728c-.589-.059-1.3-.412-1.413-.824v-.059a10.589,10.589,0,0,1,.353-1.3c.059-.236.177-.471.236-.707a7.68,7.68,0,0,0-.236-5A7.531,7.531,0,0,0,4.652.069a.645.645,0,0,0-.471,0A.488.488,0,0,0,4,.54a3.134,3.134,0,0,1-.118,1.237h0a1.864,1.864,0,0,0-.942.236,1.886,1.886,0,0,0-.765.942,1.092,1.092,0,0,0-.118.412C2,3.543,2,3.72,1.943,3.779,1.59,4.25,1.3,4.78,1,5.251s-.589,1-.942,1.472C0,6.782,0,6.841,0,6.958A1.374,1.374,0,0,0,2.179,8.077a1.492,1.492,0,0,0,.589-1.06A2,2,0,0,1,3.827,6.6a.206.206,0,0,1,.118.059.263.263,0,0,1,0,.294.989.989,0,0,1-.412.471c-.059.059-.177.118-.236.236a4.125,4.125,0,0,0-.883,1.119,4.654,4.654,0,0,0-.589,1.943v.059c-.118.589-.883.824-1.413.942A.5.5,0,0,0,0,12.2v2.355a.507.507,0,0,0,.471.471h8.42a.507.507,0,0,0,.471-.471V12.2A.5.5,0,0,0,8.95,11.728Zm-6.241-.471h4a1.607,1.607,0,0,0,.824.942H1.884A2.142,2.142,0,0,0,2.709,11.257ZM3.945,8.371a.813.813,0,0,1,.177-.236,2,2,0,0,0,.707-.942,1.231,1.231,0,0,0-.177-1.119,1.094,1.094,0,0,0-.765-.412,3.1,3.1,0,0,0-1.943.765.338.338,0,0,0-.118.412c0,.177-.059.412-.236.471a.363.363,0,0,1-.412.059.588.588,0,0,1-.236-.294,10.37,10.37,0,0,0,.824-1.354c.294-.471.589-1,.942-1.472A.885.885,0,0,0,2.944,3.6,2.55,2.55,0,0,1,3,3.308a1.076,1.076,0,0,1,.353-.471,1.216,1.216,0,0,1,.824-.059.448.448,0,0,0,.471-.353,6.846,6.846,0,0,0,.236-1.06,6.782,6.782,0,0,1,2.12,2.826,7.076,7.076,0,0,1,.177,4.416,2.87,2.87,0,0,1-.236.648,6.517,6.517,0,0,0-.412,1.531v.059H2.826A3.34,3.34,0,0,1,3.3,9.314,1.818,1.818,0,0,1,3.945,8.371Zm-3,5.711V12.67H8.42v1.413Z" transform="translate(0 -0.025)" fill="#fff"/>
</svg>
