<svg xmlns="http://www.w3.org/2000/svg" width="10.7" height="17.143" viewBox="0 0 10.7 17.143">
  <path id="Path_1478" data-name="Path 1478" d="M10.229,13.4c-.673-.067-1.48-.471-1.615-.942V12.39a12.1,12.1,0,0,1,.4-1.48c.067-.269.2-.538.269-.808a8.777,8.777,0,0,0-.269-5.72A8.607,8.607,0,0,0,5.316.075a.737.737,0,0,0-.538,0,.558.558,0,0,0-.2.538,3.581,3.581,0,0,1-.135,1.413h0A2.131,2.131,0,0,0,3.365,2.3,2.155,2.155,0,0,0,2.49,3.373a1.248,1.248,0,0,0-.135.471c-.067.2-.067.4-.135.471-.4.538-.74,1.144-1.077,1.682S.471,7.141.067,7.68C0,7.747,0,7.814,0,7.949A1.571,1.571,0,0,0,2.49,9.227a1.705,1.705,0,0,0,.673-1.211,2.284,2.284,0,0,1,1.211-.471.235.235,0,0,1,.135.067.3.3,0,0,1,0,.336,1.13,1.13,0,0,1-.471.538c-.067.067-.2.135-.269.269a4.714,4.714,0,0,0-1.009,1.279,5.319,5.319,0,0,0-.673,2.221v.067C1.951,13,1.077,13.265.471,13.4A.571.571,0,0,0,0,13.938V16.63a.579.579,0,0,0,.538.538h9.623a.579.579,0,0,0,.538-.538V13.938A.571.571,0,0,0,10.229,13.4ZM3.1,12.861H7.671a1.837,1.837,0,0,0,.942,1.077H2.153A2.448,2.448,0,0,0,3.1,12.861Zm1.413-3.3a.929.929,0,0,1,.2-.269,2.282,2.282,0,0,0,.808-1.077,1.407,1.407,0,0,0-.2-1.279,1.25,1.25,0,0,0-.875-.471,3.539,3.539,0,0,0-2.221.875.386.386,0,0,0-.135.471c0,.2-.067.471-.269.538a.414.414,0,0,1-.471.067.672.672,0,0,1-.269-.336,11.851,11.851,0,0,0,.942-1.548C2.355,6,2.692,5.392,3.1,4.853a1.012,1.012,0,0,0,.269-.74,2.914,2.914,0,0,1,.067-.336,1.23,1.23,0,0,1,.4-.538,1.39,1.39,0,0,1,.942-.067.512.512,0,0,0,.538-.4,7.824,7.824,0,0,0,.269-1.211,7.751,7.751,0,0,1,2.423,3.23,8.087,8.087,0,0,1,.2,5.047,3.28,3.28,0,0,1-.269.74,7.448,7.448,0,0,0-.471,1.75v.067H3.23a3.817,3.817,0,0,1,.538-1.75A2.078,2.078,0,0,1,4.509,9.564ZM1.077,16.091V14.476H9.623v1.615Z" transform="translate(0 -0.025)" fill="#fff"/>
</svg>
