<svg xmlns="http://www.w3.org/2000/svg" width="11.998" height="12" viewBox="0 0 11.998 12">
  <path id="Subtraction_5" data-name="Subtraction 5" d="M-3580-9642a6.006,6.006,0,0,1-6-6,6.007,6.007,0,0,1,6-6,6.007,6.007,0,0,1,6,6A6.006,6.006,0,0,1-3580-9642Zm-.308-6.876a.09.09,0,0,1,.054.028.117.117,0,0,1,0,.132.445.445,0,0,1-.187.216l-.018.015-.009.007a.265.265,0,0,0-.083.088,1.888,1.888,0,0,0-.4.511,2.143,2.143,0,0,0-.269.887v.029c-.059.3-.5.4-.644.429a.229.229,0,0,0-.19.216v1.078a.229.229,0,0,0,.216.213h3.85a.231.231,0,0,0,.213-.213v-1.078a.229.229,0,0,0-.187-.216c-.269-.026-.593-.184-.647-.376v-.026a2.844,2.844,0,0,1,.114-.436q.027-.083.049-.158a1.557,1.557,0,0,1,.053-.161l.006-.016c.017-.048.035-.1.047-.146a3.532,3.532,0,0,0-.107-2.289,3.488,3.488,0,0,0-1.48-1.723.261.261,0,0,0-.1-.019.434.434,0,0,0-.117.019.223.223,0,0,0-.082.218,1.363,1.363,0,0,1-.053.564h-.008a.841.841,0,0,0-.421.105.867.867,0,0,0-.351.432.508.508,0,0,0-.053.188.7.7,0,0,0-.024.1.211.211,0,0,1-.03.092,5.487,5.487,0,0,0-.336.516l-.095.155c-.035.057-.07.114-.106.173l-.012.021c-.092.151-.2.323-.313.48-.027.026-.027.054-.027.106a.636.636,0,0,0,.349.567.542.542,0,0,0,.267.065.66.66,0,0,0,.38-.119.687.687,0,0,0,.269-.484A.919.919,0,0,1-3580.308-9648.877Zm2.1,3.419h-3.418v-.646h3.418v.646Zm-.4-.862h-2.585a.96.96,0,0,0,.378-.432h1.832a.722.722,0,0,0,.372.43Zm-.458-.618h-1.7a1.5,1.5,0,0,1,.216-.7.829.829,0,0,1,.3-.431.354.354,0,0,1,.069-.095l.014-.015c.019-.02.04-.038.061-.058l.006-.006a.709.709,0,0,0,.255-.365.569.569,0,0,0-.08-.512.505.505,0,0,0-.351-.188.323.323,0,0,0-.053,0,1.474,1.474,0,0,0-.833.352.156.156,0,0,0-.056.189c0,.083-.028.189-.107.215a.153.153,0,0,1-.112.045.177.177,0,0,1-.077-.018.265.265,0,0,1-.106-.134,4.775,4.775,0,0,0,.375-.62c.032-.051.064-.1.1-.156l.023-.038c.092-.151.2-.323.313-.479a.412.412,0,0,0,.109-.295.329.329,0,0,1,.017-.089v0a.188.188,0,0,0,.008-.04.473.473,0,0,1,.16-.216.355.355,0,0,1,.193-.044,1.172,1.172,0,0,1,.185.018.207.207,0,0,0,.216-.162,3.114,3.114,0,0,0,.106-.48,3.065,3.065,0,0,1,.97,1.287,3.242,3.242,0,0,1,.08,2.021,1.363,1.363,0,0,1-.107.3,3.019,3.019,0,0,0-.189.7v.025Z" transform="translate(3585.999 9654.001)" fill="#5a5a5a"/>
</svg>
