<svg xmlns="http://www.w3.org/2000/svg" width="18" height="16.031" viewBox="0 0 18 16.031">
  <path id="Path_7370" data-name="Path 7370" d="M17.291,1.33h-2.31V.77a.77.77,0,1,0-1.54,0v.56H4.69V.77a.77.77,0,1,0-1.54,0v.56H.77A.8.8,0,0,0,0,2.17V15.261a.777.777,0,0,0,.77.77H17.221a.777.777,0,0,0,.77-.77V2.17A.706.706,0,0,0,17.291,1.33ZM3.15,2.94V3.5a.77.77,0,0,0,1.54,0V2.94H13.3V3.5a.77.77,0,0,0,1.54,0V2.94h1.54V6.09H1.61V2.94ZM1.61,14.421V6.86H16.451v7.56Z" transform="translate(0)" fill="#5a5a5a"/>
</svg>
