<svg xmlns="http://www.w3.org/2000/svg" width="10.623" height="10.623" viewBox="0 0 10.623 10.623">
  <path id="Path_7638" data-name="Path 7638" d="M6.166,5.311l4.273-4.273a.59.59,0,0,0,0-.855.59.59,0,0,0-.855,0L5.311,4.457,1.038.183a.59.59,0,0,0-.855,0,.59.59,0,0,0,0,.855L4.457,5.311.183,9.585a.59.59,0,0,0,0,.855.659.659,0,0,0,.427.183.554.554,0,0,0,.427-.183L5.311,6.166l4.273,4.273a.659.659,0,0,0,.427.183.554.554,0,0,0,.427-.183.59.59,0,0,0,0-.855Z" transform="translate(0)" fill="#fff"/>
</svg>
