<svg xmlns="http://www.w3.org/2000/svg" width="19.033" height="19.101" viewBox="0 0 19.033 19.101">
  <path id="Path_5251" data-name="Path 5251" d="M18.295,0h-5.8a.761.761,0,0,0-.806.806.761.761,0,0,0,.806.806h3.869L13.137,4.836A7.806,7.806,0,0,0,8.059,3.063,7.662,7.662,0,0,0,2.418,5.4,7.736,7.736,0,0,0,0,11.122a7.662,7.662,0,0,0,2.337,5.642A7.928,7.928,0,0,0,7.979,19.1a7.662,7.662,0,0,0,5.642-2.337,7.928,7.928,0,0,0,2.337-5.642,8.272,8.272,0,0,0-1.773-5.077l3.224-3.224V6.689a.806.806,0,1,0,1.612,0V.806A.667.667,0,0,0,18.295,0ZM12.573,15.635a6.421,6.421,0,0,1-9.027,0,6.1,6.1,0,0,1-1.934-4.513A6.339,6.339,0,0,1,3.466,6.609,6.148,6.148,0,0,1,8.059,4.674a6.329,6.329,0,0,1,6.367,6.367A6.389,6.389,0,0,1,12.573,15.635Z" fill="#f4f4f4"/>
</svg>
