<svg xmlns="http://www.w3.org/2000/svg" width="30" height="42" viewBox="0 0 30 42">
  <defs>
    <style>
      .cls-1, .cls-2 {
        fill: #ff994b;
      }

      .cls-1 {
        font-size: 9px;
        font-family: Roboto-Regular, Roboto;
      }
    </style>
  </defs>
  <g id="Group_15010" data-name="Group 15010" transform="translate(2567 1227)">
    <text id="general" class="cls-1" transform="translate(-2552 -1187)"><tspan x="-14.75" y="0">general</tspan></text>
    <g id="Group_13618" data-name="Group 13618" transform="translate(-2559.644 -1227)">
      <path id="Path_7504" data-name="Path 7504" class="cls-2" d="M10.548,7.4A3.148,3.148,0,1,0,13.7,10.548,3.176,3.176,0,0,0,10.548,7.4Zm0,4.794a1.717,1.717,0,1,1,1.717-1.717A1.741,1.741,0,0,1,10.548,12.194Z" transform="translate(-2.105 -2.105)"/>
      <path id="Path_7505" data-name="Path 7505" class="cls-2" d="M15.6,6.3H14.381l-.215-.572.859-.859a1.209,1.209,0,0,0,0-1.717L13.737,1.86a1.259,1.259,0,0,0-.93-.429,1.185,1.185,0,0,0-.859.358l-.859.787-.572-.215V1.216A1.206,1.206,0,0,0,9.3,0H7.441A1.192,1.192,0,0,0,6.3,1.216V2.433l-.644.215-.787-.859a1.3,1.3,0,0,0-1.717,0L1.789,3.077a1.507,1.507,0,0,0-.358.93,1.185,1.185,0,0,0,.358.859l.859.859L2.433,6.3H1.216A1.206,1.206,0,0,0,0,7.513V9.3a1.254,1.254,0,0,0,1.216,1.216H2.433l.215.572-.859.859a1.487,1.487,0,0,0-.358.859,1.185,1.185,0,0,0,.358.859l1.359,1.359a1.306,1.306,0,0,0,1.717,0l.859-.859.572.215V15.6a1.254,1.254,0,0,0,1.216,1.216H9.3A1.254,1.254,0,0,0,10.518,15.6V14.381l.572-.215.859.859a1.306,1.306,0,0,0,1.717,0l1.288-1.288a1.209,1.209,0,0,0,0-1.717l-.787-.859.215-.572H15.6a1.254,1.254,0,0,0,1.216-1.216V7.513A1.206,1.206,0,0,0,15.6,6.3Zm-.215,2.79h-1a1.4,1.4,0,0,0-1.288.93l-.215.5a1.431,1.431,0,0,0,.286,1.646l.715.715-1,1-.715-.715a1.413,1.413,0,0,0-1-.429,1.348,1.348,0,0,0-.572.143l-.5.215a1.467,1.467,0,0,0-.93,1.359v1H7.727v-1a1.4,1.4,0,0,0-.93-1.288l-.5-.286a1.431,1.431,0,0,0-1.646.286l-.715.715-1-1,.715-.715a1.462,1.462,0,0,0,.286-1.574l-.215-.5a1.467,1.467,0,0,0-1.359-.93h-.93V7.727h1A1.4,1.4,0,0,0,3.721,6.8l.215-.5a1.431,1.431,0,0,0-.286-1.646l-.715-.715,1-1,.715.715a1.413,1.413,0,0,0,1,.429,1.348,1.348,0,0,0,.572-.143l.5-.215a1.467,1.467,0,0,0,.93-1.359v-.93H9.087v1a1.4,1.4,0,0,0,.93,1.288l.5.215a1.431,1.431,0,0,0,1.646-.286l.715-.715,1,1-.715.715a1.462,1.462,0,0,0-.286,1.574l.215.5a1.538,1.538,0,0,0,1.359,1h1V9.087Z"/>
    </g>
  </g>
</svg>
