<svg xmlns="http://www.w3.org/2000/svg" xmlns:xlink="http://www.w3.org/1999/xlink" width="33" height="33" viewBox="0 0 33 33">
  <defs>
    <filter id="Ellipse_577" x="0" y="0" width="33" height="33" filterUnits="userSpaceOnUse">
      <feOffset dy="2" input="SourceAlpha"/>
      <feGaussianBlur stdDeviation="1.5" result="blur"/>
      <feFlood flood-opacity="0.161"/>
      <feComposite operator="in" in2="blur"/>
      <feComposite in="SourceGraphic"/>
    </filter>
  </defs>
  <g id="Group_13288" data-name="Group 13288" transform="translate(-4961.5 2681.5)">
    <g id="Group_13276" data-name="Group 13276" transform="translate(4966 -2679)">
      <g transform="matrix(1, 0, 0, 1, -4.5, -2.5)" filter="url(#Ellipse_577)">
        <circle id="Ellipse_577-2" data-name="Ellipse 577" cx="12" cy="12" r="12" transform="translate(4.5 2.5)" fill="#fff"/>
      </g>
      <circle id="ellipse" cx="9" cy="9" r="9" transform="translate(3 3)" fill="#1f1f1f"/>
    </g>
    <path id="Path_1472" data-name="Path 1472" d="M8.814,1.5a5.14,5.14,0,0,0-7.3,0A5.024,5.024,0,0,0,0,5.123,4.953,4.953,0,0,0,1.512,8.75a5.1,5.1,0,0,0,3.629,1.511A5.032,5.032,0,0,0,8.771,8.75a5.1,5.1,0,0,0,1.512-3.626A4.817,4.817,0,0,0,8.814,1.5Zm-6.827.475A4.466,4.466,0,0,1,4.753.677a2.512,2.512,0,0,1,.13.82,3.1,3.1,0,0,1-.259,1.252,3.881,3.881,0,0,1-.735,1.122,3.379,3.379,0,0,1-1.123.734,4.05,4.05,0,0,1-1.253.259,2.715,2.715,0,0,1-.821-.13A4.586,4.586,0,0,1,1.988,1.972Zm0,6.346a4.405,4.405,0,0,1-1.3-3.152V5.123c.259.043.562.086.821.13h.043a3.745,3.745,0,0,0,1.383-.259,3.342,3.342,0,0,0,1.21-.82,3.752,3.752,0,0,0,.821-1.209,3.737,3.737,0,0,0,.259-1.382A2.709,2.709,0,0,0,5.1.763h.043A4.424,4.424,0,0,1,9.592,5.21h0a3.639,3.639,0,0,0-2.247.173,3.342,3.342,0,0,0-1.21.82,3.752,3.752,0,0,0-.821,1.209,3.737,3.737,0,0,0-.259,1.382,2.989,2.989,0,0,0,.13.863H5.142A4.851,4.851,0,0,1,1.988,8.318Zm6.351,0a4.37,4.37,0,0,1-2.808,1.3,2.709,2.709,0,0,1-.13-.82A3.1,3.1,0,0,1,5.66,7.541a3.881,3.881,0,0,1,.735-1.122,3.379,3.379,0,0,1,1.123-.734,3.54,3.54,0,0,1,2.117-.13A4.7,4.7,0,0,1,8.339,8.318Z" transform="translate(4972.857 -2672.118)" fill="#fff"/>
  </g>
</svg>
