<svg id="Group_4060" data-name="Group 4060" xmlns="http://www.w3.org/2000/svg" width="12" height="13.146" viewBox="0 0 12 13.146">
  <path id="Path_1905" data-name="Path 1905" d="M10.909,5.127h-.873V4.036a4.036,4.036,0,0,0-8.073,0V5.127H1.091A1.094,1.094,0,0,0,0,6.218v5.836a1.094,1.094,0,0,0,1.091,1.091h9.818A1.094,1.094,0,0,0,12,12.055V6.218A1.094,1.094,0,0,0,10.909,5.127ZM3.055,4.036a2.945,2.945,0,0,1,5.891,0V5.127H3.055Zm7.855,8.018H1.091V6.218h9.818Z" fill="#fff"/>
  <path id="Path_1906" data-name="Path 1906" d="M9.5,15.427v1.255h1.091V15.427a1.2,1.2,0,0,0,.6-.982,1.146,1.146,0,1,0-1.691.982Z" transform="translate(-4.045 -6.045)" fill="#fff"/>
</svg>
