<svg id="Group_2944" data-name="Group 2944" xmlns="http://www.w3.org/2000/svg" width="55" height="55" viewBox="0 0 55 55">
  <g id="Group_11430" data-name="Group 11430" transform="translate(16.259 15.37)">
    <path id="Path_7353" data-name="Path 7353" d="M33.614,36.722l-1.958-1.964a1.957,1.957,0,0,0,.571-1.064h0v-.655a.493.493,0,0,0-.082-.327c0-.082,0-.082-.082-.164,0-.082-.082-.164-.163-.327,0-.082-.082-.082-.082-.164a1.436,1.436,0,0,0-.326-.409,1.781,1.781,0,0,0-.408-.327c-.082,0-.082-.082-.163-.082-.082-.082-.163-.082-.326-.164-.082,0-.082,0-.163-.082-.082,0-.245-.082-.326-.082h-.653a1.948,1.948,0,0,0-1.061.573l-1.958-1.964-2.04-2.046L22.924,26A10.228,10.228,0,1,0,37.368,40.487l-1.8-1.8Z" transform="translate(-19.925 -20.091)" fill="#ff994b"/>
    <path id="Path_7354" data-name="Path 7354" d="M40.938,22.643A13.019,13.019,0,0,0,27.8,19.369l.9,2.783A10.151,10.151,0,0,1,41.346,34.838l2.774.9A12.933,12.933,0,0,0,40.938,22.643Z" transform="translate(-21.374 -18.78)" fill="#ff994b"/>
    <path id="Path_7355" data-name="Path 7355" d="M29.9,25.735l.9,2.7a5.094,5.094,0,0,1,4.733,1.228,4.741,4.741,0,0,1,1.224,4.747l2.693.9A7.726,7.726,0,0,0,29.9,25.735Z" transform="translate(-21.76 -19.989)" fill="#ff994b"/>
  </g>
  <path id="Path_7356" data-name="Path 7356" d="M51.328,13.75A27.357,27.357,0,0,0,41.291,3.765,26.573,26.573,0,0,0,27.418,0,27.208,27.208,0,0,0,13.628,3.683a27.76,27.76,0,0,0-9.955,9.985,27.621,27.621,0,0,0,.082,27.664,27.756,27.756,0,0,0,9.955,9.985A26.914,26.914,0,0,0,27.418,55a27.208,27.208,0,0,0,13.791-3.683,28.642,28.642,0,0,0,10.037-9.985A26.486,26.486,0,0,0,55,27.5,26.9,26.9,0,0,0,51.328,13.75ZM45.371,27.5a17.564,17.564,0,0,1-2.448,9,22.288,22.288,0,0,1-2.938,3.683,19.316,19.316,0,0,1-3.672,2.946h0a17.013,17.013,0,0,1-8.976,2.455,17.463,17.463,0,0,1-4.488-.737,16.963,16.963,0,0,1-4.325-1.719,16.514,16.514,0,0,1-3.591-2.865A21.955,21.955,0,0,1,12,36.667a17.563,17.563,0,0,1-2.448-9,18.314,18.314,0,0,1,2.366-9,16.548,16.548,0,0,1,2.856-3.6,21.916,21.916,0,0,1,3.591-2.946,17.432,17.432,0,0,1,8.976-2.455,17.013,17.013,0,0,1,8.976,2.455A17.8,17.8,0,0,1,39.9,15.06a21.955,21.955,0,0,1,2.938,3.6A16.338,16.338,0,0,1,45.371,27.5Z" transform="translate(0 0)" fill="#ff994b"/>
</svg>
