<svg xmlns="http://www.w3.org/2000/svg" width="40" height="40" viewBox="0 0 40 40">
  <path id="Path_5530" data-name="Path 5530" d="M20,0A20,20,0,1,0,40,20,19.983,19.983,0,0,0,20,0ZM10.085,29.873a11.636,11.636,0,0,1,0-16.441l2.034,2.034,2.288,2.288L16.653,20a2.3,2.3,0,0,1,1.229-.636h0a2.063,2.063,0,0,1,.508-.042h.127c.127,0,.254.042.381.042.042,0,.127.042.169.042.127.042.212.085.339.127.042.042.085.042.127.085a1.659,1.659,0,0,1,.424.339,2.969,2.969,0,0,1,.339.424c.042.042.042.085.085.127.042.127.127.212.127.339,0,.042.042.127.042.169a1.173,1.173,0,0,1,.042.381v.127a2.063,2.063,0,0,1-.042.508h0a2.642,2.642,0,0,1-.636,1.229l2.246,2.246L24.449,27.8l2.034,2.034A11.547,11.547,0,0,1,10.085,29.873ZM26.737,24.11l-3.051-1.017a5.493,5.493,0,0,0-1.441-5.381,5.565,5.565,0,0,0-5.381-1.441L15.847,13.22a8.787,8.787,0,0,1,10.89,10.89Zm5.89,1.907L29.449,25A11.646,11.646,0,0,0,14.958,10.508L13.941,7.331A14.964,14.964,0,0,1,32.627,26.017Z" fill="#919191"/>
</svg>
