<svg xmlns="http://www.w3.org/2000/svg" width="19.709" height="20" viewBox="0 0 19.709 20">
  <g id="Group_16132" data-name="Group 16132" transform="translate(-1544.9 -1916.895)">
    <path id="Path_7659" data-name="Path 7659" d="M1545.77,1918.634h17.97a.87.87,0,0,0,0-1.739h-17.97a.87.87,0,1,0,0,1.739Z" transform="translate(0)" fill="#fff"/>
    <path id="Path_7660" data-name="Path 7660" d="M1545.77,1923.884h13.984a.87.87,0,0,0,0-1.739H1545.77a.87.87,0,1,0,0,1.739Z" transform="translate(0 -0.685)" fill="#fff"/>
    <path id="Path_7661" data-name="Path 7661" d="M1563.74,1927.4h-17.97a.87.87,0,1,0,0,1.739h17.97a.87.87,0,1,0,0-1.739Z" transform="translate(0 -1.37)" fill="#fff"/>
    <path id="Path_7662" data-name="Path 7662" d="M1561.058,1932.645H1545.77a.87.87,0,1,0,0,1.739h15.289a.87.87,0,1,0,0-1.739Z" transform="translate(0 -2.054)" fill="#fff"/>
    <path id="Path_7663" data-name="Path 7663" d="M1553.232,1937.9h-7.463a.87.87,0,1,0,0,1.739h7.463a.87.87,0,0,0,0-1.739Z" transform="translate(0 -2.739)" fill="#fff"/>
  </g>
</svg>
