<svg xmlns="http://www.w3.org/2000/svg" width="18" height="18" viewBox="0 0 18 18">
  <g id="Group_12451" data-name="Group 12451" transform="translate(-2178 -813)">
    <g id="Group_9678" data-name="Group 9678" transform="translate(-199 -2584)">
      <path id="Path_5401" data-name="Path 5401" d="M5.065,1.477,3.709.185A9.411,9.411,0,0,0,0,7.385H1.809A7.414,7.414,0,0,1,5.065,1.477ZM16.191,7.385H18a9.411,9.411,0,0,0-3.709-7.2L13.025,1.477A7.579,7.579,0,0,1,16.191,7.385Zm-1.719.462c0-2.862-1.447-5.169-4.07-5.815V1.385A1.406,1.406,0,0,0,9.045,0,1.406,1.406,0,0,0,7.688,1.385v.646c-2.623.646-4.07,2.954-4.07,5.815v4.615L1.809,14.308v.923H16.281v-.923l-1.809-1.846ZM9.045,18h.362a1.721,1.721,0,0,0,1.266-1.108,1.834,1.834,0,0,0,.09-.738H7.236A1.833,1.833,0,0,0,9.045,18Z" transform="translate(2377 3397)" fill="#5a5a5a"/>
    </g>
  </g>
</svg>
