<svg id="Group_14435" data-name="Group 14435" xmlns="http://www.w3.org/2000/svg" width="13.091" height="13.091" viewBox="0 0 13.091 13.091">
  <circle id="ellipse" cx="6.545" cy="6.545" r="6.545" transform="translate(0)" fill="#6dccc1"/>
  <g id="Group_13139" data-name="Group 13139" transform="translate(2.909 2.909)">
    <g id="Group_13137" data-name="Group 13137" transform="translate(0 0)">
      <path id="Path_7447" data-name="Path 7447" d="M5.637,6.812a.406.406,0,0,1-.171-.057L3.58,5.384,1.7,6.755a.261.261,0,0,1-.343,0,.34.34,0,0,1-.114-.314l.743-2.2L.1,2.871a.367.367,0,0,1-.114-.343.284.284,0,0,1,.286-.2H2.609L3.323.1a.284.284,0,0,1,.286-.2.344.344,0,0,1,.286.2l.714,2.228H6.951a.344.344,0,0,1,.286.2.271.271,0,0,1-.114.314L5.237,4.213l.714,2.228a.271.271,0,0,1-.114.314.308.308,0,0,1-.2.057Z" transform="translate(0.026 0.1)" fill="#fff"/>
    </g>
  </g>
</svg>
