<svg id="Group_13230" data-name="Group 13230" xmlns="http://www.w3.org/2000/svg" width="20" height="15.461" viewBox="0 0 20 15.461">
  <path id="Path_7448" data-name="Path 7448" d="M19.654,7.654a12.057,12.057,0,0,0-3.692-3L14.808,5.808A11.935,11.935,0,0,1,18,8.115a11.442,11.442,0,0,1-5.5,3.154,4.05,4.05,0,0,0,1.538-3.154,3.593,3.593,0,0,0-.231-1.308L7.692,12.885A14.356,14.356,0,0,0,10,13.077a12.616,12.616,0,0,0,9.654-4.538L20,8.077ZM17.115,1.308a.778.778,0,0,0,0-1.077.743.743,0,0,0-1.077,0L12.846,3.423a13.083,13.083,0,0,0-2.808-.308A12.556,12.556,0,0,0,.346,7.654L0,8.115l.346.462a12.428,12.428,0,0,0,4.115,3.231L2.115,14.154a.744.744,0,0,0,0,1.077.744.744,0,0,0,1.077,0ZM5.962,8.115a3.874,3.874,0,0,0,.423,1.769l-.769.769A11.515,11.515,0,0,1,2,8.115,11.244,11.244,0,0,1,7.5,4.962,4.05,4.05,0,0,0,5.962,8.115Z" transform="translate(0 0)" fill="#a5a5a5"/>
</svg>
