<svg id="Group_13240" data-name="Group 13240" xmlns="http://www.w3.org/2000/svg" width="20" height="10" viewBox="0 0 20 10">
  <path id="Path_7449" data-name="Path 7449" d="M19.654,4.538a12.537,12.537,0,0,0-19.308,0L0,5l.346.462A12.616,12.616,0,0,0,10,10a12.616,12.616,0,0,0,9.654-4.538L20,5ZM2,5A11.244,11.244,0,0,1,7.5,1.846a4,4,0,0,0,0,6.308A11.244,11.244,0,0,1,2,5ZM12.5,8.154A4.05,4.05,0,0,0,14.038,5a3.758,3.758,0,0,0-.462-1.846v.154a1.538,1.538,0,1,1-1.538-1.538,1.931,1.931,0,0,1,.462.077h0A11.551,11.551,0,0,1,18,5,11.244,11.244,0,0,1,12.5,8.154Z" fill="#a5a5a5"/>
</svg>
