<svg xmlns="http://www.w3.org/2000/svg" width="18" height="16.371" viewBox="0 0 18 16.371">
  <g id="Group_12466" data-name="Group 12466" transform="translate(0)">
    <g id="Group_12464" data-name="Group 12464">
      <path id="Path_7371" data-name="Path 7371" d="M3.647,16.371h-.7a.825.825,0,0,1-.7-.621.78.78,0,0,1,.388-.853,4.811,4.811,0,0,0,1.707-1.319C1.707,12.181,0,9.853,0,7.293,0,3.259,4.034,0,9,0s9,3.259,9,7.293-4.034,7.293-9,7.293H8.612a7.6,7.6,0,0,1-4.966,1.784ZM9,1.552c-4.112,0-7.448,2.56-7.448,5.741,0,2.172,1.629,4.19,4.19,5.121a.7.7,0,0,1,.466.466.85.85,0,0,1,0,.621l-.078.078c-.078.078-.078.233-.155.31l-.466.7a4.364,4.364,0,0,0,2.25-1.319.881.881,0,0,1,.621-.233H9c4.112,0,7.448-2.56,7.448-5.741S13.112,1.552,9,1.552Z" fill="#5a5a5a"/>
    </g>
    <g id="Group_12465" data-name="Group 12465" transform="translate(4.422 6.44)">
      <path id="Path_7372" data-name="Path 7372" d="M6.864,8.3A1.164,1.164,0,1,0,8.028,9.464,1.193,1.193,0,0,0,6.864,8.3Z" transform="translate(-5.7 -8.3)" fill="#5a5a5a"/>
      <path id="Path_7373" data-name="Path 7373" d="M11.264,8.3a1.164,1.164,0,1,0,1.164,1.164A1.193,1.193,0,0,0,11.264,8.3Z" transform="translate(-6.686 -8.3)" fill="#5a5a5a"/>
      <path id="Path_7374" data-name="Path 7374" d="M15.764,8.3a1.164,1.164,0,1,0,1.164,1.164A1.193,1.193,0,0,0,15.764,8.3Z" transform="translate(-7.695 -8.3)" fill="#5a5a5a"/>
    </g>
  </g>
</svg>
