<svg xmlns="http://www.w3.org/2000/svg" width="11" height="11" viewBox="0 0 11 11">
  <path id="Path_4864" data-name="Path 4864" d="M9.762,8.987a5.538,5.538,0,0,0-.374-7.4A5.471,5.471,0,0,0,5.511,0,5.581,5.581,0,0,0,1.588,1.591,5.606,5.606,0,0,0,0,5.523,5.49,5.49,0,0,0,1.214,8.987h0c.14.14.234.281.374.421A5.471,5.471,0,0,0,5.465,11,5.327,5.327,0,0,0,9.341,9.362a1.1,1.1,0,0,0,.42-.374ZM2.289,2.294A4.406,4.406,0,0,1,5.511.936,4.406,4.406,0,0,1,8.734,2.294,4.615,4.615,0,0,1,9.341,8l-.047-.047a8.943,8.943,0,0,0-2.242-.7A.877.877,0,0,0,7.426,6.6V6.413A.576.576,0,0,0,7.753,5.9l.093-.889a.747.747,0,0,0-.187-.562l.047-.234a1.791,1.791,0,0,0-.467-1.591,2.583,2.583,0,0,0-1.728-.609,2.375,2.375,0,0,0-1.681.609,1.663,1.663,0,0,0-.514,1.545l.047.234a.776.776,0,0,0-.234.562l.093.889a.675.675,0,0,0,.327.515v.187a.877.877,0,0,0,.374.655,9.949,9.949,0,0,0-2.289.7H1.588a4.634,4.634,0,0,1-.7-2.481A4.622,4.622,0,0,1,2.289,2.294Zm3.223,7.817H5.044a4.548,4.548,0,0,1-2.055-.749h0c-.093-.094-.234-.14-.327-.234A2.16,2.16,0,0,1,2.335,8.8h0a5.765,5.765,0,0,1,2.2-.7.473.473,0,0,0,.327-.187.505.505,0,0,0,.093-.374l-.093-.655c0-.14-.093-.234-.234-.328a.349.349,0,0,1-.14-.14c0-.187-.047-.421-.047-.609A.4.4,0,0,0,4.11,5.43h0V5.149h0A.408.408,0,0,0,4.3,4.728L4.25,4.072a.812.812,0,0,1,.187-.8A1.492,1.492,0,0,1,5.511,2.9a1.574,1.574,0,0,1,1.074.374c.234.187.187.515.187.8l-.093.609a.457.457,0,0,0,.187.421h.047l-.047.328h0a.453.453,0,0,0-.327.374l-.047.562a.349.349,0,0,1-.14.14.474.474,0,0,0-.187.328l-.093.655a.564.564,0,0,0,.093.374.473.473,0,0,0,.327.187,7.581,7.581,0,0,1,2.289.655h0A4.721,4.721,0,0,1,5.511,10.111Z" fill="#6dccc1"/>
</svg>
