<svg xmlns="http://www.w3.org/2000/svg" width="13" height="12.972" viewBox="0 0 13 12.972">
  <path id="Path_4847" data-name="Path 4847" d="M11.536,10.6A6.48,6.48,0,0,0,6.513,0,6.6,6.6,0,0,0,1.877,1.877,6.6,6.6,0,0,0,0,6.513,6.465,6.465,0,0,0,1.435,10.6h0c.166.166.276.331.442.5a6.473,6.473,0,0,0,4.581,1.877A6.3,6.3,0,0,0,11.04,11.04a1.3,1.3,0,0,0,.5-.442ZM2.7,2.7A5.213,5.213,0,0,1,6.513,1.1a5.213,5.213,0,0,1,3.809,1.6,5.433,5.433,0,0,1,.718,6.734l-.055-.055a10.585,10.585,0,0,0-2.65-.828,1.034,1.034,0,0,0,.442-.773V7.562a.679.679,0,0,0,.386-.607l.11-1.049a.88.88,0,0,0-.221-.662l.055-.276a2.109,2.109,0,0,0-.552-1.877,3.057,3.057,0,0,0-2.042-.718,2.81,2.81,0,0,0-1.987.718,1.959,1.959,0,0,0-.607,1.822l.055.276a.914.914,0,0,0-.276.662L3.809,6.9a.8.8,0,0,0,.386.607v.221a1.034,1.034,0,0,0,.442.773,11.777,11.777,0,0,0-2.7.828H1.877A5.456,5.456,0,0,1,1.049,6.4,5.445,5.445,0,0,1,2.7,2.7Zm3.809,9.218H5.961a5.383,5.383,0,0,1-2.429-.883h0c-.11-.11-.276-.166-.386-.276a2.55,2.55,0,0,1-.386-.386h0a6.824,6.824,0,0,1,2.594-.828.559.559,0,0,0,.386-.221.6.6,0,0,0,.11-.442l-.11-.773c0-.166-.11-.276-.276-.386A.412.412,0,0,1,5.3,7.562c0-.221-.055-.5-.055-.718A.468.468,0,0,0,4.857,6.4h0V6.072h0a.48.48,0,0,0,.221-.5L5.023,4.8a.956.956,0,0,1,.221-.938,1.766,1.766,0,0,1,1.27-.442,1.863,1.863,0,0,1,1.27.442c.276.221.221.607.221.938l-.11.718a.538.538,0,0,0,.221.5h.055L8.114,6.4h0a.535.535,0,0,0-.386.442l-.055.662a.412.412,0,0,1-.166.166.559.559,0,0,0-.221.386l-.11.773a.664.664,0,0,0,.11.442.559.559,0,0,0,.386.221,8.975,8.975,0,0,1,2.7.773h0A5.586,5.586,0,0,1,6.513,11.923Z" fill="#737373"/>
</svg>
