<svg xmlns="http://www.w3.org/2000/svg" xmlns:xlink="http://www.w3.org/1999/xlink" width="329" height="240.285" viewBox="0 0 329 240.285">
  <defs>
    <filter id="Ellipse_493" x="0" y="94.5" width="49" height="49" filterUnits="userSpaceOnUse">
      <feOffset dy="2" input="SourceAlpha"/>
      <feGaussianBlur stdDeviation="1.5" result="blur"/>
      <feFlood flood-opacity="0.161"/>
      <feComposite operator="in" in2="blur"/>
      <feComposite in="SourceGraphic"/>
    </filter>
    <filter id="Ellipse_574" x="280" y="94.5" width="49" height="49" filterUnits="userSpaceOnUse">
      <feOffset dy="2" input="SourceAlpha"/>
      <feGaussianBlur stdDeviation="1.5" result="blur-2"/>
      <feFlood flood-opacity="0.161"/>
      <feComposite operator="in" in2="blur-2"/>
      <feComposite in="SourceGraphic"/>
    </filter>
  </defs>
  <g id="Group_16156" data-name="Group 16156" transform="translate(-15.5 -675)">
    <g id="Group_12251" data-name="Group 12251" transform="translate(2996 -11159)">
      <g transform="matrix(1, 0, 0, 1, -2980.5, 11834)" filter="url(#Ellipse_493)">
        <circle id="Ellipse_493-2" data-name="Ellipse 493" cx="20" cy="20" r="20" transform="translate(4.5 97)" fill="#fff"/>
      </g>
      <circle id="ellipse" cx="15" cy="15" r="15" transform="translate(-2971.2 11935.8)" fill="#cbcbcb"/>
      <path id="Path_1842" data-name="Path 1842" d="M8.969,1.728,7.241,0,0,7.241,1.728,8.969,7.241,14.4l1.728-1.728L3.456,7.241Z" transform="translate(-2961.6 11943.8)" fill="#fff"/>
    </g>
    <g id="Group_12250" data-name="Group 12250" transform="translate(3033 -11159)">
      <g transform="matrix(1, 0, 0, 1, -3017.5, 11834)" filter="url(#Ellipse_574)">
        <circle id="Ellipse_574-2" data-name="Ellipse 574" cx="20" cy="20" r="20" transform="translate(284.5 97)" fill="#fff"/>
      </g>
      <circle id="ellipse-2" data-name="ellipse" cx="15" cy="15" r="15" transform="translate(-2728.2 11935.8)" fill="#6dccc1"/>
      <path id="Path_1841" data-name="Path 1841" d="M0,1.728,1.728,0,8.969,7.241,7.241,8.969,1.728,14.4,0,12.672,5.431,7.241Z" transform="translate(-2717 11943.8)" fill="#fff"/>
    </g>
    <g id="Group_13342" data-name="Group 13342" transform="translate(-7 553)">
      <ellipse id="Ellipse_481" data-name="Ellipse 481" cx="120" cy="120.142" rx="120" ry="120.142" transform="translate(67 122)" fill="#151515"/>
      <g id="Group_10881" data-name="Group 10881" transform="translate(79.857 131.654)">
        <g id="Group_10870" data-name="Group 10870" transform="translate(22.821 23.278)">
          <g id="Group_10847" data-name="Group 10847" transform="translate(42.214)" opacity="0.1">
            <g id="Group_10846" data-name="Group 10846">
              <path id="Path_6543" data-name="Path 6543" d="M102.807,106.122,60.7,33.071A79.627,79.627,0,0,1,102.807,21.7Z" transform="translate(-60.7 -21.7)" fill="#70c9be"/>
            </g>
          </g>
          <g id="Group_10849" data-name="Group 10849" transform="translate(11.357 11.263)" opacity="0.1">
            <g id="Group_10848" data-name="Group 10848">
              <path id="Path_6544" data-name="Path 6544" d="M104.864,105.358,31.9,63.094A80.6,80.6,0,0,1,62.757,32.2Z" transform="translate(-31.9 -32.2)" fill="#70c9be"/>
            </g>
          </g>
          <g id="Group_10851" data-name="Group 10851" transform="translate(0 42.264)" opacity="0.1">
            <g id="Group_10850" data-name="Group 10850">
              <path id="Path_6545" data-name="Path 6545" d="M105.621,103.257H21.3A80.76,80.76,0,0,1,32.55,61.1Z" transform="translate(-21.3 -61.1)" fill="#70c9be"/>
            </g>
          </g>
          <g id="Group_10853" data-name="Group 10853" transform="translate(0.107 84.422)" opacity="0.1">
            <g id="Group_10852" data-name="Group 10852" transform="translate(0 0)">
              <path id="Path_6546" data-name="Path 6546" d="M105.614,100.4,32.65,142.557A81.03,81.03,0,0,1,21.4,100.4h84.214Z" transform="translate(-21.4 -100.4)" fill="#70c9be"/>
            </g>
          </g>
          <g id="Group_10855" data-name="Group 10855" transform="translate(11.357 84.422)">
            <g id="Group_10854" data-name="Group 10854">
              <path id="Path_6547" data-name="Path 6547" d="M104.864,100.4,62.757,173.451A80.6,80.6,0,0,1,31.9,142.557Z" transform="translate(-31.9 -100.4)" fill="#ff994b"/>
            </g>
          </g>
          <g id="Group_10861" data-name="Group 10861" transform="translate(84.321 84.422)" opacity="0.1">
            <g id="Group_10860" data-name="Group 10860">
              <path id="Path_6550" data-name="Path 6550" d="M100,100.4l72.964,42.157a80.6,80.6,0,0,1-30.857,30.894Z" transform="translate(-100 -100.4)" fill="#70c9be"/>
            </g>
          </g>
          <g id="Group_10863" data-name="Group 10863" transform="translate(84.321 84.422)" opacity="0.1">
            <g id="Group_10862" data-name="Group 10862">
              <path id="Path_6551" data-name="Path 6551" d="M100,100.4h84.321a80.76,80.76,0,0,1-11.25,42.157Z" transform="translate(-100 -100.4)" fill="#70c9be"/>
            </g>
          </g>
          <g id="Group_10865" data-name="Group 10865" transform="translate(84.321 42.157)" opacity="0.1">
            <g id="Group_10864" data-name="Group 10864">
              <path id="Path_6552" data-name="Path 6552" d="M100,103.264,172.964,61a81.03,81.03,0,0,1,11.25,42.157H100Z" transform="translate(-100 -61)" fill="#70c9be"/>
            </g>
          </g>
          <g id="Group_10867" data-name="Group 10867" transform="translate(84.321 11.371)" opacity="0.1">
            <g id="Group_10866" data-name="Group 10866">
              <path id="Path_6553" data-name="Path 6553" d="M100,105.351,142.107,32.3a80.6,80.6,0,0,1,30.857,30.894Z" transform="translate(-100 -32.3)" fill="#70c9be"/>
            </g>
          </g>
          <g id="Group_10869" data-name="Group 10869" transform="translate(84.321)" opacity="0.1">
            <g id="Group_10868" data-name="Group 10868">
              <path id="Path_6554" data-name="Path 6554" d="M100,106.122V21.7a80.517,80.517,0,0,1,42.107,11.263Z" transform="translate(-100 -21.7)" fill="#70c9be"/>
            </g>
          </g>
        </g>
        <ellipse id="Ellipse_530" data-name="Ellipse 530" cx="67.393" cy="67.473" rx="67.393" ry="67.473" transform="translate(39.75 40.226)" fill="#1f1f1f"/>
        <g id="Group_10871" data-name="Group 10871" transform="translate(56.956 57.468)">
          <path id="Path_6555" data-name="Path 6555" d="M113.821,148.672a50.064,50.064,0,0,0,25.714-17.378L100,100.4Z" transform="translate(-49.813 -50.169)" fill="#ff994b"/>
          <path id="Path_6556" data-name="Path 6556" d="M139.536,131.3a49.966,49.966,0,0,0,10.607-29.177L100,100.3Z" transform="translate(-49.813 -50.177)" fill="#ff994b"/>
          <path id="Path_6557" data-name="Path 6557" d="M150.143,104.021a44.811,44.811,0,0,0-.107-5.364A49.229,49.229,0,0,0,141.571,74.2L100,102.3Z" transform="translate(-49.813 -52.074)" fill="#ff994b"/>
          <path id="Path_6558" data-name="Path 6558" d="M141.571,75.494A50.049,50.049,0,0,0,117.143,56.4L100,103.6Z" transform="translate(-49.813 -53.368)" fill="#ff994b"/>
          <path id="Path_6559" data-name="Path 6559" d="M118.064,56.605a49.7,49.7,0,0,0-20.786-2.9A44.929,44.929,0,0,0,87.1,55.533L100.921,103.8Z" transform="translate(-50.734 -53.574)" fill="#ff994b"/>
          <path id="Path_6560" data-name="Path 6560" d="M88.814,55.4A50.064,50.064,0,0,0,63.1,72.778l39.536,30.894Z" transform="translate(-52.448 -53.441)" fill="#ff994b"/>
          <path id="Path_6561" data-name="Path 6561" d="M63.807,71.6A49.966,49.966,0,0,0,53.2,100.777l50.143,1.824Z" transform="translate(-53.156 -52.263)" fill="#ff994b"/>
          <path id="Path_6562" data-name="Path 6562" d="M53.2,98.7a44.818,44.818,0,0,0,.107,5.364,49.229,49.229,0,0,0,8.464,24.458l41.571-28Z" transform="translate(-53.159 -50.293)" fill="#ff994b"/>
          <path id="Path_6563" data-name="Path 6563" d="M85.629,147.6l17.143-47.2L61.2,128.4A50.257,50.257,0,0,0,85.629,147.6Z" transform="translate(-52.584 -50.169)" fill="#ff994b"/>
          <path id="Path_6564" data-name="Path 6564" d="M84,147.6a49.7,49.7,0,0,0,20.786,2.9,44.93,44.93,0,0,0,10.179-1.824L101.143,100.4Z" transform="translate(-50.956 -50.169)" fill="#ff994b"/>
        </g>
        <g id="Group_10874" data-name="Group 10874" transform="translate(95.036 184.505)">
          <g id="Group_10873" data-name="Group 10873" transform="translate(7.179 6.686)">
            <path id="Path_6565" data-name="Path 6565" d="M101.4,185.42l-.857-.858a.814.814,0,0,0,.214-.429h0V183.6a.105.105,0,0,0-.107-.107v-.107c0-.107-.107-.107-.107-.215a.374.374,0,0,0-.214-.107h-.107a.1.1,0,0,1-.107-.107h-.536a.556.556,0,0,0-.429.215l-.857-.858-.857-.858-.75-.751a4.473,4.473,0,1,0,6.321,6.329l-.75-.751Z" transform="translate(-95.4 -178.053)" fill="#ff994b"/>
            <path id="Path_6566" data-name="Path 6566" d="M103.786,179.914A5.633,5.633,0,0,0,98,178.519l.429,1.18a4.524,4.524,0,0,1,4.5,1.18,4.658,4.658,0,0,1,1.179,4.505l1.179.429A6.068,6.068,0,0,0,103.786,179.914Z" transform="translate(-95.214 -178.233)" fill="#ff994b"/>
            <path id="Path_6567" data-name="Path 6567" d="M98.7,180.608l.429,1.18a2.039,2.039,0,0,1,2.036.536,2.106,2.106,0,0,1,.536,2.038l1.179.429a3.378,3.378,0,0,0-4.179-4.184Z" transform="translate(-95.164 -178.069)" fill="#ff994b"/>
          </g>
          <path id="Path_6568" data-name="Path 6568" d="M111.307,178.007a12.335,12.335,0,0,0-4.393-4.4A11.808,11.808,0,0,0,100.807,172a12,12,0,0,0-10.5,6.007,11.844,11.844,0,0,0-1.607,6.114,11.491,11.491,0,0,0,1.714,6.114,12.335,12.335,0,0,0,4.393,4.4,11.7,11.7,0,0,0,6,1.609,12,12,0,0,0,10.5-6.007,11.927,11.927,0,0,0,1.714-6.114A13.063,13.063,0,0,0,111.307,178.007Zm-2.571,6.114a7.63,7.63,0,0,1-1.071,3.969,9.324,9.324,0,0,1-2.893,2.9h0a7.1,7.1,0,0,1-3.964,1.073,8.643,8.643,0,0,1-2.036-.322,6.574,6.574,0,0,1-1.929-.751,6.9,6.9,0,0,1-1.607-1.287,8.457,8.457,0,0,1-1.286-1.609,7.63,7.63,0,0,1-1.071-3.969,7.369,7.369,0,0,1,1.071-3.969,6.9,6.9,0,0,1,1.286-1.609,8.453,8.453,0,0,1,1.607-1.287,7.607,7.607,0,0,1,3.964-1.073,7.1,7.1,0,0,1,3.964,1.073,7.962,7.962,0,0,1,3.964,6.865Z" transform="translate(-88.7 -172)" fill="#ff994b"/>
        </g>
        <g id="Group_10875" data-name="Group 10875" transform="translate(91.869 76.32)">
          <text id="_10" data-name="10" transform="translate(0 44)" fill="#010101" font-size="42" font-family="Khand-Medium, Khand" font-weight="500"><tspan x="0" y="0">10</tspan></text>
        </g>
        <g id="Group_10877" data-name="Group 10877">
          <ellipse id="Ellipse_531" data-name="Ellipse 531" cx="107.143" cy="107.27" rx="107.143" ry="107.27" fill="none"/>
          <g id="Group_10876" data-name="Group 10876" transform="translate(20.715 20.873)">
            <path id="Path_6569" data-name="Path 6569" d="M42.4,159.556l5.036-5.256.75.751L43.9,159.556l1.607.215-.75.858-1.607-.215Z" transform="translate(-17.687 -9.656)" fill="#fff"/>
            <path id="Path_6570" data-name="Path 6570" d="M42.714,157.507a2.225,2.225,0,0,1-1.286.536,1.851,1.851,0,0,1-1.286-.644,2.078,2.078,0,0,1-.643-1.395,1.483,1.483,0,0,1,.643-1.18l2.893-2.789a2.225,2.225,0,0,1,1.286-.536,1.851,1.851,0,0,1,1.286.644,2.078,2.078,0,0,1,.643,1.395,1.483,1.483,0,0,1-.643,1.18Zm-1.929-2.038a.805.805,0,0,0,0,1.287.8.8,0,0,0,1.286,0l2.893-2.682a.805.805,0,0,0,0-1.287.8.8,0,0,0-1.286,0Z" transform="translate(-17.894 -9.859)" fill="#fff"/>
            <path id="Path_6571" data-name="Path 6571" d="M22.858,124.825a2.035,2.035,0,0,1-1.393-.107,2.015,2.015,0,0,1-.857-1.18,1.777,1.777,0,0,1,.107-1.5,2.14,2.14,0,0,1,1.071-.858l3.857-1.073a1.7,1.7,0,0,1,2.25,1.287,1.8,1.8,0,0,1-1.179,2.36Zm-.75-2.574a.861.861,0,0,0-.643,1.073c.107.322.214.536.429.536a.682.682,0,0,0,.643,0l3.75-1.073a1.145,1.145,0,0,0,.536-.322.881.881,0,0,0,0-.751c-.214-.536-.536-.751-1.071-.536Z" transform="translate(-19.252 -12.147)" fill="#fff"/>
            <path id="Path_6572" data-name="Path 6572" d="M21.548,120.408a2.035,2.035,0,0,1-1.393-.107,1.576,1.576,0,0,1-.75-1.287,2.293,2.293,0,0,1,.107-1.5,1.9,1.9,0,0,1,1.179-.751l3.857-.858a1.66,1.66,0,0,1,1.286.215,1.792,1.792,0,0,1,.75,1.395,3.886,3.886,0,0,1,.107,1.5l-.964.215a3.691,3.691,0,0,0-.107-1.5c-.214-.751-.536-.965-1.071-.858l-1.071.215a2.018,2.018,0,0,1,.429,1.073,1.748,1.748,0,0,1-.107,1.287,1.542,1.542,0,0,1-1.071.644Zm-.536-2.682a.765.765,0,0,0-.643,1.073.819.819,0,0,0,1.071.644l1.286-.322a.725.725,0,0,0,.643-.965,1.616,1.616,0,0,0-.429-.858Z" transform="translate(-19.334 -12.45)" fill="#fff"/>
            <path id="Path_6573" data-name="Path 6573" d="M20.994,82.252a2.252,2.252,0,0,1-1.179-.751,1.777,1.777,0,0,1-.107-1.5,1.662,1.662,0,0,1,.857-1.287,2.035,2.035,0,0,1,1.393-.107l3.857.965a2.252,2.252,0,0,1,1.179.751,1.777,1.777,0,0,1,.107,1.5,1.662,1.662,0,0,1-.857,1.287,1.973,1.973,0,0,1-1.393.107Zm.75-2.682a.819.819,0,0,0-1.071.644.636.636,0,0,0,.107.751.648.648,0,0,0,.643.322l3.857.965q.482.161.643,0a.985.985,0,0,0,.429-.644.82.82,0,0,0-.643-1.073Z" transform="translate(-19.316 -15.164)" fill="#fff"/>
            <path id="Path_6574" data-name="Path 6574" d="M23.361,73.9l.643.215a1.371,1.371,0,0,1,1.071,1.073,1.463,1.463,0,0,1,1.5-.215l.643.215a1.473,1.473,0,0,1,1.071.858,1.816,1.816,0,0,1,0,1.5,2.451,2.451,0,0,1-.857,1.287,2.035,2.035,0,0,1-1.393.107l-.643-.215a1.371,1.371,0,0,1-1.071-1.073,1.42,1.42,0,0,1-1.5.215l-.643-.215a1.473,1.473,0,0,1-1.071-.858,1.816,1.816,0,0,1,0-1.5,2.451,2.451,0,0,1,.857-1.287A2.035,2.035,0,0,1,23.361,73.9ZM22.5,76.587l.75.215a.723.723,0,0,0,1.071-.644c.107-.644,0-.965-.536-1.073l-.75-.215c-.536-.215-.857,0-1.071.644A.717.717,0,0,0,22.5,76.587ZM26.9,76.05l-.643-.215c-.536-.215-.964,0-1.179.644a.839.839,0,0,0,.536,1.18l.643.215c.536.215.857,0,1.071-.644A.745.745,0,0,0,26.9,76.05Z" transform="translate(-19.219 -15.505)" fill="#fff"/>
            <path id="Path_6575" data-name="Path 6575" d="M39.843,45.918a1.483,1.483,0,0,1-.643-1.18,2.308,2.308,0,0,1,.643-1.395,1.851,1.851,0,0,1,1.286-.644,2.225,2.225,0,0,1,1.286.536l2.893,2.789a1.483,1.483,0,0,1,.643,1.18,2.308,2.308,0,0,1-.643,1.395,2.694,2.694,0,0,1-1.286.751,2.225,2.225,0,0,1-1.286-.536Zm1.929-2.038a.8.8,0,0,0-1.286,0,.805.805,0,0,0,0,1.287l2.893,2.682a.8.8,0,0,0,1.286,0,.805.805,0,0,0,0-1.287Z" transform="translate(-17.915 -17.769)" fill="#fff"/>
            <path id="Path_6576" data-name="Path 6576" d="M41.7,41.66l2.464-2.36.536.536,1.071,2.253a15.351,15.351,0,0,0,1.714,2.574l.75.751-.75.751-.75-.858a9.763,9.763,0,0,1-1.714-2.574l-.964-2.038L42.343,42.3Z" transform="translate(-17.737 -18.016)" fill="#fff"/>
            <path id="Path_6577" data-name="Path 6577" d="M74.7,23.164a2.042,2.042,0,0,1,.107-1.395,2.013,2.013,0,0,1,1.179-.858,1.81,1.81,0,0,1,1.5,0,1.769,1.769,0,0,1,.857,1.073l1.179,3.862a2.042,2.042,0,0,1-.107,1.395,2.013,2.013,0,0,1-1.179.858,1.81,1.81,0,0,1-1.5,0,1.769,1.769,0,0,1-.857-1.073Zm2.571-.858a.86.86,0,0,0-1.071-.644c-.321.107-.536.215-.536.429a.685.685,0,0,0,0,.644l1.179,3.754a.755.755,0,0,0,.429.536.905.905,0,0,0,.75,0c.536-.215.75-.536.536-1.073Z" transform="translate(-15.384 -19.365)" fill="#fff"/>
            <path id="Path_6578" data-name="Path 6578" d="M79.3,21.863a1.59,1.59,0,0,1,.214-1.395A1.968,1.968,0,0,1,80.8,19.61a3.873,3.873,0,0,1,1.5-.107l.214.965a3.188,3.188,0,0,0-1.393.107c-.643.215-.964.536-.857,1.18l.214.965a2.485,2.485,0,0,1,1.071-.429,1.473,1.473,0,0,1,1.179.107,2.122,2.122,0,0,1,.75,1.073l.321,1.395a2.042,2.042,0,0,1-.107,1.395,1.574,1.574,0,0,1-1.286.751,2.286,2.286,0,0,1-1.5-.107,1.547,1.547,0,0,1-.75-1.18Zm3.214,1.824c-.107-.536-.429-.644-.964-.536a2.153,2.153,0,0,0-.857.429l.429,1.824a.884.884,0,1,0,1.714-.429Z" transform="translate(-15.055 -19.459)" fill="#fff"/>
            <path id="Path_6579" data-name="Path 6579" d="M117.272,20.9a2.255,2.255,0,0,1,.75-1.18,1.771,1.771,0,0,1,1.5-.107,1.887,1.887,0,0,1,1.286.751,1.577,1.577,0,0,1,.107,1.395l-.964,3.862a2.255,2.255,0,0,1-.75,1.18,1.771,1.771,0,0,1-1.5.107,1.887,1.887,0,0,1-1.286-.751,1.577,1.577,0,0,1-.107-1.395Zm2.679.644a.82.82,0,0,0-.643-1.073.879.879,0,0,0-.75.107.649.649,0,0,0-.321.644l-.964,3.862q-.161.483,0,.644a.984.984,0,0,0,.643.429.819.819,0,0,0,1.071-.644Z" transform="translate(-12.416 -19.456)" fill="#fff"/>
            <path id="Path_6580" data-name="Path 6580" d="M122.443,20.4l3.107.965-.321.858-2.143-.644-.536,1.931a1.985,1.985,0,0,1,.75.215,1.642,1.642,0,0,1,1.071.751,1.69,1.69,0,0,1,.107,1.287l-.321,1.18a1.153,1.153,0,0,1-.857.965,1.81,1.81,0,0,1-1.5,0c-.536-.215-1.071-.429-1.5-.644l.321-.965a3.619,3.619,0,0,0,1.286.644,3.012,3.012,0,0,0,.857.107.755.755,0,0,0,.429-.536l.321-.965q.161-.483,0-.644a.984.984,0,0,0-.643-.429,12.808,12.808,0,0,1-1.5-.322Z" transform="translate(-12.122 -19.39)" fill="#fff"/>
            <path id="Path_6581" data-name="Path 6581" d="M155.121,40.344A1.48,1.48,0,0,1,156.3,39.7a2.3,2.3,0,0,1,1.393.644,1.855,1.855,0,0,1,.643,1.287,2.23,2.23,0,0,1-.536,1.287l-2.786,2.9a1.48,1.48,0,0,1-1.179.644,2.3,2.3,0,0,1-1.393-.644,1.855,1.855,0,0,1-.643-1.287,2.23,2.23,0,0,1,.536-1.287Zm1.929,1.931a.805.805,0,0,0,0-1.287.8.8,0,0,0-1.286,0l-2.679,2.789a.805.805,0,0,0,0,1.287.8.8,0,0,0,1.286,0Z" transform="translate(-9.872 -17.987)" fill="#fff"/>
            <path id="Path_6582" data-name="Path 6582" d="M158.643,48.842l-.643.644-.536-.536-.964.858-.643-.751.964-.858L155,46.267l.643-.644,5.25-1.824.964,1.073-3.643,3.433Zm-1.071-1.18,3-2.789-4.286,1.5Z" transform="translate(-9.644 -17.689)" fill="#fff"/>
            <path id="Path_6583" data-name="Path 6583" d="M177.844,76.2a1.7,1.7,0,0,1,2.25,1.287,1.777,1.777,0,0,1-.107,1.5,1.549,1.549,0,0,1-1.071.751l-3.857,1.073a2.035,2.035,0,0,1-1.393-.107,1.97,1.97,0,0,1-.857-1.287,1.777,1.777,0,0,1,.107-1.5,1.549,1.549,0,0,1,1.071-.751Zm.75,2.574a.82.82,0,0,0,.643-1.073c-.107-.322-.214-.536-.429-.536a.682.682,0,0,0-.643,0l-3.75,1.073a1.145,1.145,0,0,0-.536.322.908.908,0,0,0,0,.751.819.819,0,0,0,1.071.644Z" transform="translate(-8.38 -15.338)" fill="#fff"/>
            <path id="Path_6584" data-name="Path 6584" d="M181.1,81.458c.321,1.287-.107,2.145-1.179,2.36l-.75.215c-.643.107-1.179,0-1.393-.429,0,.536-.321.858-1.071,1.073l-.857.215a1.66,1.66,0,0,1-1.286-.215,2.575,2.575,0,0,1-.75-1.287,3.8,3.8,0,0,1-.107-1.5l.964-.215a6.07,6.07,0,0,0,0,1.395c.107.429.214.751.429.858a1.159,1.159,0,0,0,.643.107l.643-.107a1.145,1.145,0,0,0,.536-.322,1.592,1.592,0,0,0,.107-.751l-.214-.751.964-.215.214.751a1.747,1.747,0,0,0,.321.644.682.682,0,0,0,.643,0l.643-.107a2.342,2.342,0,0,0,.536-.322,1.452,1.452,0,0,0,0-.965,3.214,3.214,0,0,0-.429-1.073l.964-.215C180.774,80.6,180.882,80.922,181.1,81.458Z" transform="translate(-8.311 -15.014)" fill="#fff"/>
            <path id="Path_6585" data-name="Path 6585" d="M179.808,116.468a1.545,1.545,0,0,1,1.179.751,1.73,1.73,0,0,1,.107,1.5,1.89,1.89,0,0,1-.75,1.287,2.041,2.041,0,0,1-1.393.215l-3.857-.965a1.756,1.756,0,0,1-1.179-.751,1.73,1.73,0,0,1-.107-1.5,1.89,1.89,0,0,1,.75-1.287,2.041,2.041,0,0,1,1.393-.215Zm-.643,2.682a.819.819,0,0,0,1.071-.644.882.882,0,0,0-.107-.751.916.916,0,0,0-.643-.322l-3.857-.858a1.227,1.227,0,0,0-.643,0,.649.649,0,0,0-.321.644.82.82,0,0,0,.643,1.073Z" transform="translate(-8.309 -12.479)" fill="#fff"/>
            <path id="Path_6586" data-name="Path 6586" d="M180.014,122.933c-.321,1.287-1.071,1.824-2.143,1.5l-.536-.107a2.152,2.152,0,0,1-.857-.429,4.541,4.541,0,0,1-.536-.751l-.429-1.073c-.107-.429-.214-.644-.429-.751a1.744,1.744,0,0,0-.643-.322l-.643-.215-.643,2.36-.857-.215.964-3.433,1.5.429a2.009,2.009,0,0,1,1.5,1.5l.429,1.073a2.345,2.345,0,0,0,.321.536,1.744,1.744,0,0,0,.643.322l.429.107a.682.682,0,0,0,.643,0c.214-.107.321-.322.429-.751a2.644,2.644,0,0,0,.107-1.287l.964.322A7.005,7.005,0,0,1,180.014,122.933Z" transform="translate(-8.408 -12.186)" fill="#fff"/>
            <path id="Path_6587" data-name="Path 6587" d="M160.707,154.433a1.483,1.483,0,0,1,.643,1.18,2.308,2.308,0,0,1-.643,1.395,1.851,1.851,0,0,1-1.286.644,2.225,2.225,0,0,1-1.286-.536l-2.893-2.789a1.483,1.483,0,0,1-.643-1.18,2.308,2.308,0,0,1,.643-1.395,2.694,2.694,0,0,1,1.286-.751,2.225,2.225,0,0,1,1.286.536Zm-1.929,1.931a.8.8,0,0,0,1.286,0,.805.805,0,0,0,0-1.287l-2.893-2.682a.8.8,0,0,0-1.286,0,.805.805,0,0,0,0,1.287Z" transform="translate(-9.672 -9.895)" fill="#fff"/>
            <path id="Path_6588" data-name="Path 6588" d="M157.236,160.307l-5.036-5.256.75-.751,4.286,4.4.321-1.609.75.858-.321,1.609Z" transform="translate(-9.844 -9.656)" fill="#fff"/>
          </g>
        </g>
        <g id="Group_10880" data-name="Group 10880" transform="translate(22.607 23.385)">
          <g id="Group_10878" data-name="Group 10878" transform="translate(0.107)">
            <path id="Path_6589" data-name="Path 6589" d="M24.521,165.945a32.893,32.893,0,0,0-3.321-1.824l16.5-.322.321,16.52a37.963,37.963,0,0,0-7.179-9.44A41.522,41.522,0,0,0,24.521,165.945Z" transform="translate(-21.2 -11.477)" fill="#fff"/>
            <path id="Path_6590" data-name="Path 6590" d="M164.636,25.125a32.958,32.958,0,0,1-1.821-3.325L162.6,38.32l16.5.215a37.488,37.488,0,0,1-9.429-7.08A40.8,40.8,0,0,1,164.636,25.125Z" transform="translate(-11.1 -21.8)" fill="none"/>
          </g>
          <g id="Group_10879" data-name="Group 10879" transform="translate(0 0.322)">
            <path id="Path_6591" data-name="Path 6591" d="M35.457,25.425A32.958,32.958,0,0,0,37.279,22.1L37.6,38.62l-16.5.322a37.927,37.927,0,0,0,9.429-7.187A35.754,35.754,0,0,0,35.457,25.425Z" transform="translate(-21.1 -22.1)" fill="none"/>
            <path id="Path_6592" data-name="Path 6592" d="M176.393,165.538a32.894,32.894,0,0,1,3.321-1.824l-16.5-.215L163,180.02a39.157,39.157,0,0,1,13.393-14.481Z" transform="translate(-10.964 -11.82)" fill="none"/>
          </g>
        </g>
      </g>
    </g>
  </g>
</svg>
