<svg id="Group_12474" data-name="Group 12474" xmlns="http://www.w3.org/2000/svg" width="16.068" height="16" viewBox="0 0 16.068 16">
  <g id="Group_12471" data-name="Group 12471" transform="translate(0 0)">
    <g id="Group_12476" data-name="Group 12476">
      <path id="Path_7375" data-name="Path 7375" d="M15.319,16H.749A.746.746,0,0,1,0,15.319V.749A.756.756,0,0,1,.749,0h14.57a.756.756,0,0,1,.749.749v14.57a.866.866,0,0,1-.749.681ZM1.43,14.57H14.57V1.43H1.43V14.57Z" transform="translate(0 0)" fill="#5a5a5a"/>
    </g>
  </g>
  <g id="Group_12472" data-name="Group 12472" transform="translate(0.613 5.174)">
    <path id="Path_7376" data-name="Path 7376" d="M15.334,8.281H1.24a.34.34,0,1,1,0-.681H15.334a.34.34,0,0,1,0,.681Z" transform="translate(-0.9 -7.6)" fill="#5a5a5a"/>
  </g>
  <g id="Group_12473" data-name="Group 12473" transform="translate(0.613 10.077)">
    <path id="Path_7377" data-name="Path 7377" d="M15.334,15.481H1.24a.34.34,0,1,1,0-.681H15.334a.34.34,0,0,1,0,.681Z" transform="translate(-0.9 -14.8)" fill="#5a5a5a"/>
  </g>
</svg>
