<svg xmlns="http://www.w3.org/2000/svg" width="18.025" height="15.16" viewBox="0 0 18.025 15.16">
  <g id="Group_12461" data-name="Group 12461" transform="translate(-1469.184 111.007)">
    <path id="Path_5308" data-name="Path 5308" d="M27.12,21.307c.107.142.214.285.338.427a4.4,4.4,0,0,0,6.228.285,4.448,4.448,0,0,0,1.477-3.06,4.308,4.308,0,0,0-1.1-3.167l-.16-.16a4.432,4.432,0,0,0-6.068-.125,3.654,3.654,0,0,0-.6.676l-2.171-.036a9.859,9.859,0,0,1,.534-.943l-.819-1.263.3-.267.765-.694.3-.267,1.068.872a7.571,7.571,0,0,1,.819-.48l-.089-1.495.409-.089,1.014-.214.409-.089.48,1.281a4.5,4.5,0,0,1,.979,0l.658-1.3.391.125,1,.32.391.125-.214,1.3a8.468,8.468,0,0,1,.872.5l1.21-.783.285.3.694.783.267.3L35.963,15.2a6.1,6.1,0,0,1,.5.872l1.423-.089.089.409.214,1.014.089.409-1.246.48a5.747,5.747,0,0,1,0,.783c0,.071-.018.125-.018.2l1.317.658-.125.391-.32,1-.125.391-1.352-.231a5.589,5.589,0,0,1-.5.819l.819,1.263-.3.267-.783.694-.3.267-1.068-.872a5.464,5.464,0,0,1-.819.48l.089,1.495L33.116,26l-1.014.214-.409.089-.48-1.263a5.991,5.991,0,0,1-.979,0l-.658,1.317-.391-.125-1-.32-.391-.125.214-1.317a6.1,6.1,0,0,1-.872-.5l-1.21.783-.267-.3-.694-.783-.267-.3.836-1.032a6.774,6.774,0,0,1-.552-1Z" transform="translate(1448.878 -122.207)" fill="#a5a5a5"/>
    <path id="Path_5309" data-name="Path 5309" d="M.427,37.873a.993.993,0,0,1,.676-.338l6.833.107a3.032,3.032,0,0,1,5.374.409H10.943a.346.346,0,0,0-.356.356v1.637a.346.346,0,0,0,.356.356H13.31a3.049,3.049,0,0,1-2.794,1.851,3.019,3.019,0,0,1-2.58-1.441c-2.278.053-4.555.089-6.833.125A.956.956,0,0,1,.427,40.6,2.383,2.383,0,0,1,.427,37.873Z" transform="translate(1469.183 -142.759)" fill="#a5a5a5"/>
  </g>
</svg>
