<svg id="Group_15213" data-name="Group 15213" xmlns="http://www.w3.org/2000/svg" width="20" height="21.963" viewBox="0 0 20 21.963">
  <g id="Group_15204" data-name="Group 15204">
    <g id="Group_15201" data-name="Group 15201" transform="translate(2.056)">
      <path id="Path_7629" data-name="Path 7629" d="M3.135,9.813A.883.883,0,0,1,2.2,8.879V.935A.883.883,0,0,1,3.135,0a.883.883,0,0,1,.935.935V8.879a.883.883,0,0,1-.935.935Z" transform="translate(-2.2)" fill="#fff"/>
    </g>
    <g id="Group_15202" data-name="Group 15202" transform="translate(2.056 13.271)">
      <path id="Path_7630" data-name="Path 7630" d="M3.135,22.892a.883.883,0,0,1-.935-.935V15.135a.883.883,0,0,1,.935-.935.883.883,0,0,1,.935.935v6.822a.883.883,0,0,1-.935.935Z" transform="translate(-2.2 -14.2)" fill="#fff"/>
    </g>
    <g id="Group_15203" data-name="Group 15203" transform="translate(0 8.785)">
      <path id="Path_7631" data-name="Path 7631" d="M2.991,15.381A3.011,3.011,0,0,1,0,12.391,3.075,3.075,0,0,1,2.991,9.4a2.991,2.991,0,0,1,0,5.981Zm0-4.206A1.136,1.136,0,0,0,1.869,12.3a1.206,1.206,0,0,0,1.121,1.121,1.121,1.121,0,0,0,0-2.243Z" transform="translate(0 -9.4)" fill="#fff"/>
    </g>
  </g>
  <g id="Group_15208" data-name="Group 15208" transform="translate(7.009)">
    <g id="Group_15205" data-name="Group 15205" transform="translate(2.056)">
      <path id="Path_7632" data-name="Path 7632" d="M10.635,14.206a.883.883,0,0,1-.935-.935V.935A.883.883,0,0,1,10.635,0a.883.883,0,0,1,.935.935V13.271a.937.937,0,0,1-.935.935Z" transform="translate(-9.7)" fill="#fff"/>
    </g>
    <g id="Group_15206" data-name="Group 15206" transform="translate(2.056 17.009)">
      <path id="Path_7633" data-name="Path 7633" d="M10.635,23.153a.883.883,0,0,1-.935-.935V19.135a.883.883,0,0,1,.935-.935.883.883,0,0,1,.935.935v3.084a.883.883,0,0,1-.935.935Z" transform="translate(-9.7 -18.2)" fill="#fff"/>
    </g>
    <g id="Group_15207" data-name="Group 15207" transform="translate(0 12.523)">
      <path id="Path_7634" data-name="Path 7634" d="M10.491,19.381A3.011,3.011,0,0,1,7.5,16.391,3.075,3.075,0,0,1,10.491,13.4a2.991,2.991,0,0,1,0,5.981Zm0-4.206A1.121,1.121,0,1,0,11.612,16.3a1.077,1.077,0,0,0-1.121-1.121Z" transform="translate(-7.5 -13.4)" fill="#fff"/>
    </g>
  </g>
  <g id="Group_15212" data-name="Group 15212" transform="translate(13.925)">
    <g id="Group_15209" data-name="Group 15209" transform="translate(2.15)">
      <path id="Path_7635" data-name="Path 7635" d="M18.135,5.327a.883.883,0,0,1-.935-.935V.935a.935.935,0,1,1,1.869,0V4.393a.937.937,0,0,1-.935.935Z" transform="translate(-17.2)" fill="#fff"/>
    </g>
    <g id="Group_15210" data-name="Group 15210" transform="translate(2.15 7.944)">
      <path id="Path_7636" data-name="Path 7636" d="M18.135,22.519a.883.883,0,0,1-.935-.935V9.435a.935.935,0,1,1,1.869,0v12.15a.883.883,0,0,1-.935.935Z" transform="translate(-17.2 -8.5)" fill="#fff"/>
    </g>
    <g id="Group_15211" data-name="Group 15211" transform="translate(0 3.551)">
      <path id="Path_7637" data-name="Path 7637" d="M17.984,9.781A3.094,3.094,0,0,1,14.9,6.791,3.094,3.094,0,0,1,17.984,3.8a2.991,2.991,0,1,1,0,5.981Zm0-4.206A1.121,1.121,0,1,0,19.106,6.7a1.031,1.031,0,0,0-1.121-1.121Z" transform="translate(-14.9 -3.8)" fill="#fff"/>
    </g>
  </g>
</svg>
