<svg xmlns="http://www.w3.org/2000/svg" width="11.998" height="12" viewBox="0 0 11.998 12">
  <path id="Subtraction_7" data-name="Subtraction 7" d="M-3580-9642a6.006,6.006,0,0,1-6-6,6.007,6.007,0,0,1,6-6,6.007,6.007,0,0,1,6,6A6.006,6.006,0,0,1-3580-9642Zm0-9.427a3.432,3.432,0,0,0-3.428,3.428,3.424,3.424,0,0,0,3.428,3.412,3.424,3.424,0,0,0,3.428-3.412A3.432,3.432,0,0,0-3580-9651.428Zm0,6.493a3.069,3.069,0,0,1-3.065-3.065,3.068,3.068,0,0,1,3.065-3.064,3.068,3.068,0,0,1,3.065,3.064A3.068,3.068,0,0,1-3580-9644.935Zm.78-4.245a.455.455,0,0,0-.453.456.454.454,0,0,0,.453.453.454.454,0,0,0,.453-.453A.455.455,0,0,0-3579.22-9649.18Zm-1.56,0a.455.455,0,0,0-.453.456.454.454,0,0,0,.453.453.454.454,0,0,0,.453-.453A.455.455,0,0,0-3580.78-9649.18Z" transform="translate(3585.999 9654.001)" fill="#606060"/>
</svg>
