<svg xmlns="http://www.w3.org/2000/svg" width="20" height="20" viewBox="0 0 20 20">
  <g id="Group_16030" data-name="Group 16030" transform="translate(-4969 2676)">
    <g id="Group_13276" data-name="Group 13276" transform="translate(4969 -2676)">
      <circle id="ellipse" cx="10" cy="10" r="10" transform="translate(0 0)" fill="#1f1f1f"/>
    </g>
    <path id="Path_1472" data-name="Path 1472" d="M9.794,1.666a5.712,5.712,0,0,0-8.113,0A5.582,5.582,0,0,0,0,5.7,5.5,5.5,0,0,0,1.68,9.725,5.672,5.672,0,0,0,5.713,11.4,5.591,5.591,0,0,0,9.746,9.725,5.663,5.663,0,0,0,11.426,5.7,5.353,5.353,0,0,0,9.794,1.666Zm-7.585.528A4.962,4.962,0,0,1,5.281.754a2.791,2.791,0,0,1,.144.911,3.439,3.439,0,0,1-.288,1.391A4.312,4.312,0,0,1,4.321,4.3a3.755,3.755,0,0,1-1.248.815,4.5,4.5,0,0,1-1.392.288,3.017,3.017,0,0,1-.912-.144A5.1,5.1,0,0,1,2.208,2.194Zm0,7.051a4.895,4.895,0,0,1-1.44-3.5V5.7c.288.048.624.1.912.144h.048a4.161,4.161,0,0,0,1.536-.288A3.714,3.714,0,0,0,4.609,4.64,4.169,4.169,0,0,0,5.521,3.3a4.152,4.152,0,0,0,.288-1.535A3.01,3.01,0,0,0,5.665.85h.048a4.916,4.916,0,0,1,4.945,4.941h0a4.044,4.044,0,0,0-2.5.192,3.714,3.714,0,0,0-1.344.911A4.169,4.169,0,0,0,5.9,8.238a4.152,4.152,0,0,0-.288,1.535,3.321,3.321,0,0,0,.144.959H5.713A5.39,5.39,0,0,1,2.208,9.245Zm7.057,0a4.856,4.856,0,0,1-3.12,1.439A3.01,3.01,0,0,1,6,9.773a3.439,3.439,0,0,1,.288-1.391,4.312,4.312,0,0,1,.816-1.247,3.755,3.755,0,0,1,1.248-.815,3.934,3.934,0,0,1,2.352-.144A5.224,5.224,0,0,1,9.265,9.245Z" transform="translate(4973.286 -2671.689)" fill="#fff"/>
  </g>
</svg>
