<svg xmlns="http://www.w3.org/2000/svg" width="15" height="15" viewBox="0 0 15 15">
  <path id="Path_1472" data-name="Path 1472" d="M12.854,2.194a7.5,7.5,0,0,0-10.649,0A7.327,7.327,0,0,0,0,7.483a7.223,7.223,0,0,0,2.205,5.289,7.445,7.445,0,0,0,5.293,2.2,7.338,7.338,0,0,0,5.293-2.2A7.432,7.432,0,0,0,15,7.483,7.025,7.025,0,0,0,12.854,2.194ZM2.9,2.887A6.513,6.513,0,0,1,6.931,1a3.663,3.663,0,0,1,.189,1.2A4.513,4.513,0,0,1,6.742,4.02,5.659,5.659,0,0,1,5.671,5.657a4.928,4.928,0,0,1-1.638,1.07,5.906,5.906,0,0,1-1.827.378,3.959,3.959,0,0,1-1.2-.189A6.688,6.688,0,0,1,2.9,2.887Zm0,9.255a6.424,6.424,0,0,1-1.89-4.6V7.483c.378.063.819.126,1.2.189h.063a5.462,5.462,0,0,0,2.016-.378A4.874,4.874,0,0,0,6.049,6.1a5.472,5.472,0,0,0,1.2-1.763A5.449,5.449,0,0,0,7.624,2.32a3.95,3.95,0,0,0-.189-1.2H7.5a6.452,6.452,0,0,1,6.49,6.485h0a5.307,5.307,0,0,0-3.277.252,4.874,4.874,0,0,0-1.764,1.2,5.472,5.472,0,0,0-1.2,1.763,5.45,5.45,0,0,0-.378,2.015,4.359,4.359,0,0,0,.189,1.259H7.5A7.074,7.074,0,0,1,2.9,12.142Zm9.262,0a6.373,6.373,0,0,1-4.1,1.889,3.95,3.95,0,0,1-.189-1.2,4.513,4.513,0,0,1,.378-1.826A5.659,5.659,0,0,1,9.325,9.372,4.928,4.928,0,0,1,10.964,8.3a5.163,5.163,0,0,1,3.087-.189A6.857,6.857,0,0,1,12.161,12.142Z" transform="translate(0 0.025)" fill="#fff"/>
</svg>
