<svg xmlns="http://www.w3.org/2000/svg" width="11.998" height="12" viewBox="0 0 11.998 12">
  <path id="Subtraction_8" data-name="Subtraction 8" d="M-3580-9642a6.006,6.006,0,0,1-6-6,6.007,6.007,0,0,1,6-6,6.007,6.007,0,0,1,6,6A6.006,6.006,0,0,1-3580-9642Zm.013-9.426a3.429,3.429,0,0,0-2.434,1.014,3.35,3.35,0,0,0-1.008,2.418,3.312,3.312,0,0,0,1.008,2.418,3.4,3.4,0,0,0,2.42,1.006,3.346,3.346,0,0,0,2.418-1.006,3.39,3.39,0,0,0,1.008-2.418,3.2,3.2,0,0,0-.979-2.418A3.43,3.43,0,0,0-3579.987-9651.427Zm.016,6.453H-3580a3.227,3.227,0,0,1-2.1-.892,2.945,2.945,0,0,1-.865-2.1V-9648c.108.019.228.036.344.054l.056.009.148.022h.029a2.445,2.445,0,0,0,.921-.172,2.2,2.2,0,0,0,.806-.545,2.47,2.47,0,0,0,.548-.807,2.486,2.486,0,0,0,.172-.921,1.784,1.784,0,0,0-.085-.548h.029a2.962,2.962,0,0,1,2.1.862,2.96,2.96,0,0,1,.863,2.1,2.547,2.547,0,0,0-.584-.068,2.3,2.3,0,0,0-.913.183,2.24,2.24,0,0,0-.807.547,2.524,2.524,0,0,0-.548.8,2.538,2.538,0,0,0-.172.923,1.975,1.975,0,0,0,.087.573Zm.23-.029h0a1.777,1.777,0,0,1-.087-.544,2.1,2.1,0,0,1,.172-.836,2.641,2.641,0,0,1,.489-.748,2.309,2.309,0,0,1,.751-.49,2.3,2.3,0,0,1,.838-.154,2.348,2.348,0,0,1,.572.07,3.107,3.107,0,0,1-.865,1.841,2.906,2.906,0,0,1-1.87.862Zm-2.679-3.166a1.786,1.786,0,0,1-.548-.085,3.062,3.062,0,0,1,.865-1.844,2.984,2.984,0,0,1,1.844-.862,1.722,1.722,0,0,1,.085.547,2.034,2.034,0,0,1-.172.834,2.626,2.626,0,0,1-.49.748,2.187,2.187,0,0,1-.749.49,2.594,2.594,0,0,1-.833.172Z" transform="translate(3585.999 9654.001)" fill="#6dccc1"/>
</svg>
