<svg xmlns="http://www.w3.org/2000/svg" width="17.143" height="17.143" viewBox="0 0 17.143 17.143">
  <path id="Path_1472" data-name="Path 1472" d="M14.69,2.511a8.567,8.567,0,0,0-12.17,0A8.373,8.373,0,0,0,0,8.555,8.255,8.255,0,0,0,2.52,14.6a8.508,8.508,0,0,0,6.049,2.518A8.387,8.387,0,0,0,14.618,14.6a8.494,8.494,0,0,0,2.52-6.044A8.029,8.029,0,0,0,14.69,2.511ZM3.313,3.3A7.443,7.443,0,0,1,7.921,1.144a4.186,4.186,0,0,1,.216,1.367A5.158,5.158,0,0,1,7.705,4.6,6.468,6.468,0,0,1,6.481,6.469,5.632,5.632,0,0,1,4.609,7.692a6.75,6.75,0,0,1-2.088.432,4.525,4.525,0,0,1-1.368-.216A7.644,7.644,0,0,1,3.313,3.3Zm0,10.577a7.342,7.342,0,0,1-2.16-5.253V8.555c.432.072.936.144,1.368.216h.072A6.242,6.242,0,0,0,4.9,8.34,5.57,5.57,0,0,0,6.913,6.972,6.254,6.254,0,0,0,8.281,4.958a6.228,6.228,0,0,0,.432-2.3A4.515,4.515,0,0,0,8.5,1.288h.072A7.373,7.373,0,0,1,15.987,8.7h0a6.065,6.065,0,0,0-3.745.288,5.571,5.571,0,0,0-2.016,1.367,6.254,6.254,0,0,0-1.368,2.015,6.228,6.228,0,0,0-.432,2.3,4.982,4.982,0,0,0,.216,1.439H8.569A8.085,8.085,0,0,1,3.313,13.88Zm10.586,0a7.284,7.284,0,0,1-4.681,2.159A4.515,4.515,0,0,1,9,14.671a5.158,5.158,0,0,1,.432-2.087,6.468,6.468,0,0,1,1.224-1.871A5.632,5.632,0,0,1,12.53,9.491a5.9,5.9,0,0,1,3.529-.216A7.837,7.837,0,0,1,13.9,13.88Z" transform="translate(0 0.025)" fill="#fff"/>
</svg>
