<svg id="Group_13229" data-name="Group 13229" xmlns="http://www.w3.org/2000/svg" width="20" height="14.435" viewBox="0 0 20 14.435">
  <g id="Group_13226" data-name="Group 13226">
    <path id="Path_7450" data-name="Path 7450" d="M17.826,14.435H2.087A2.116,2.116,0,0,1,0,12.348V2.087A2.116,2.116,0,0,1,2.087,0H17.913A2.116,2.116,0,0,1,20,2.087V12.435a2.249,2.249,0,0,1-2.174,2ZM2.087,1.739a.374.374,0,0,0-.348.348V12.435a.374.374,0,0,0,.348.348H17.913a.374.374,0,0,0,.348-.348V2.087a.374.374,0,0,0-.348-.348Z" fill="#a5a5a5"/>
  </g>
  <g id="Group_13227" data-name="Group 13227" transform="translate(0.573 6.739)">
    <path id="Path_7451" data-name="Path 7451" d="M17.912,15.011H2.173A1.516,1.516,0,0,1,.695,13.967a.575.575,0,0,1,.087-.522L6.869,7.967a.43.43,0,1,1,.609.609L1.564,13.793a.752.752,0,0,0,.522.261H17.912a.62.62,0,0,0,.522-.261l-6-5.3a.43.43,0,0,1,.609-.609L19.3,13.446a.3.3,0,0,1,.087.435,1.491,1.491,0,0,1-1.478,1.13Z" transform="translate(-0.659 -7.75)" fill="#a5a5a5"/>
  </g>
  <g id="Group_13228" data-name="Group 13228" transform="translate(0.522 0.435)">
    <path id="Path_7452" data-name="Path 7452" d="M9.991,10.152a.319.319,0,0,1-.261-.087l-8.957-8A.639.639,0,0,1,.6,1.543,1.694,1.694,0,0,1,2.078.5H17.9a1.516,1.516,0,0,1,1.478,1.043.382.382,0,0,1-.087.435l-8.957,8c-.087.174-.174.174-.348.174ZM1.557,1.63,9.991,9.2,18.426,1.63A.752.752,0,0,0,17.9,1.37H2.165a.789.789,0,0,0-.609.261Z" transform="translate(-0.6 -0.5)" fill="#a5a5a5"/>
  </g>
</svg>
