<svg xmlns="http://www.w3.org/2000/svg" width="21" height="15.424" viewBox="0 0 21 15.424">
  <g id="Group_16131" data-name="Group 16131" transform="translate(-1717.673 -1922.488)">
    <path id="Path_7657" data-name="Path 7657" d="M1737.9,1923.691a.875.875,0,0,0-.744-.665,75.115,75.115,0,0,0-17.961,0,.875.875,0,0,0-.745.665,27.706,27.706,0,0,0,0,13.013.872.872,0,0,0,.745.664,74.574,74.574,0,0,0,17.961,0,.872.872,0,0,0,.744-.664A27.706,27.706,0,0,0,1737.9,1923.691Zm-1.565,12.013a73.308,73.308,0,0,1-16.32,0,25.91,25.91,0,0,1,0-11.013,73.191,73.191,0,0,1,16.32,0A25.91,25.91,0,0,1,1736.334,1935.7Z" transform="translate(0 0)" fill="#fff"/>
    <path id="Path_7658" data-name="Path 7658" d="M1733.317,1929.571l-5.133-2.965a1.43,1.43,0,0,0-.719-.2,1.249,1.249,0,0,0-1.224,1.324v5.929a1.249,1.249,0,0,0,1.224,1.323,1.427,1.427,0,0,0,.717-.2l5.135-2.964a1.249,1.249,0,0,0,0-2.242Zm-5.328,3.3v-4.358l3.773,2.179Z" transform="translate(-1.08 -0.494)" fill="#fff"/>
  </g>
</svg>
